%TF.GenerationSoftware,KiCad,Pcbnew,7.0.10*%
%TF.CreationDate,2024-07-25T10:46:56+01:00*%
%TF.ProjectId,RL78I1C_PMOD_PROG_ADAPTOR_NON_ISO,524c3738-4931-4435-9f50-4d4f445f5052,0*%
%TF.SameCoordinates,Original*%
%TF.FileFunction,Other,Comment*%
%FSLAX46Y46*%
G04 Gerber Fmt 4.6, Leading zero omitted, Abs format (unit mm)*
G04 Created by KiCad (PCBNEW 7.0.10) date 2024-07-25 10:46:56*
%MOMM*%
%LPD*%
G01*
G04 APERTURE LIST*
%ADD10C,0.150000*%
%ADD11C,0.300000*%
%ADD12C,0.200000*%
G04 APERTURE END LIST*
D10*
X177212969Y-87769819D02*
X176736779Y-87769819D01*
X176736779Y-87769819D02*
X176736779Y-86769819D01*
X177974874Y-87769819D02*
X177974874Y-87246009D01*
X177974874Y-87246009D02*
X177927255Y-87150771D01*
X177927255Y-87150771D02*
X177832017Y-87103152D01*
X177832017Y-87103152D02*
X177641541Y-87103152D01*
X177641541Y-87103152D02*
X177546303Y-87150771D01*
X177974874Y-87722200D02*
X177879636Y-87769819D01*
X177879636Y-87769819D02*
X177641541Y-87769819D01*
X177641541Y-87769819D02*
X177546303Y-87722200D01*
X177546303Y-87722200D02*
X177498684Y-87626961D01*
X177498684Y-87626961D02*
X177498684Y-87531723D01*
X177498684Y-87531723D02*
X177546303Y-87436485D01*
X177546303Y-87436485D02*
X177641541Y-87388866D01*
X177641541Y-87388866D02*
X177879636Y-87388866D01*
X177879636Y-87388866D02*
X177974874Y-87341247D01*
X178355827Y-87103152D02*
X178593922Y-87769819D01*
X178832017Y-87103152D02*
X178593922Y-87769819D01*
X178593922Y-87769819D02*
X178498684Y-88007914D01*
X178498684Y-88007914D02*
X178451065Y-88055533D01*
X178451065Y-88055533D02*
X178355827Y-88103152D01*
X179593922Y-87722200D02*
X179498684Y-87769819D01*
X179498684Y-87769819D02*
X179308208Y-87769819D01*
X179308208Y-87769819D02*
X179212970Y-87722200D01*
X179212970Y-87722200D02*
X179165351Y-87626961D01*
X179165351Y-87626961D02*
X179165351Y-87246009D01*
X179165351Y-87246009D02*
X179212970Y-87150771D01*
X179212970Y-87150771D02*
X179308208Y-87103152D01*
X179308208Y-87103152D02*
X179498684Y-87103152D01*
X179498684Y-87103152D02*
X179593922Y-87150771D01*
X179593922Y-87150771D02*
X179641541Y-87246009D01*
X179641541Y-87246009D02*
X179641541Y-87341247D01*
X179641541Y-87341247D02*
X179165351Y-87436485D01*
X180070113Y-87769819D02*
X180070113Y-87103152D01*
X180070113Y-87293628D02*
X180117732Y-87198390D01*
X180117732Y-87198390D02*
X180165351Y-87150771D01*
X180165351Y-87150771D02*
X180260589Y-87103152D01*
X180260589Y-87103152D02*
X180355827Y-87103152D01*
X181974875Y-87769819D02*
X181403447Y-87769819D01*
X181689161Y-87769819D02*
X181689161Y-86769819D01*
X181689161Y-86769819D02*
X181593923Y-86912676D01*
X181593923Y-86912676D02*
X181498685Y-87007914D01*
X181498685Y-87007914D02*
X181403447Y-87055533D01*
X183451066Y-88150771D02*
X183403447Y-88103152D01*
X183403447Y-88103152D02*
X183308209Y-87960295D01*
X183308209Y-87960295D02*
X183260590Y-87865057D01*
X183260590Y-87865057D02*
X183212971Y-87722200D01*
X183212971Y-87722200D02*
X183165352Y-87484104D01*
X183165352Y-87484104D02*
X183165352Y-87293628D01*
X183165352Y-87293628D02*
X183212971Y-87055533D01*
X183212971Y-87055533D02*
X183260590Y-86912676D01*
X183260590Y-86912676D02*
X183308209Y-86817438D01*
X183308209Y-86817438D02*
X183403447Y-86674580D01*
X183403447Y-86674580D02*
X183451066Y-86626961D01*
X183689162Y-86769819D02*
X184260590Y-86769819D01*
X183974876Y-87769819D02*
X183974876Y-86769819D01*
X184736781Y-87769819D02*
X184641543Y-87722200D01*
X184641543Y-87722200D02*
X184593924Y-87674580D01*
X184593924Y-87674580D02*
X184546305Y-87579342D01*
X184546305Y-87579342D02*
X184546305Y-87293628D01*
X184546305Y-87293628D02*
X184593924Y-87198390D01*
X184593924Y-87198390D02*
X184641543Y-87150771D01*
X184641543Y-87150771D02*
X184736781Y-87103152D01*
X184736781Y-87103152D02*
X184879638Y-87103152D01*
X184879638Y-87103152D02*
X184974876Y-87150771D01*
X184974876Y-87150771D02*
X185022495Y-87198390D01*
X185022495Y-87198390D02*
X185070114Y-87293628D01*
X185070114Y-87293628D02*
X185070114Y-87579342D01*
X185070114Y-87579342D02*
X185022495Y-87674580D01*
X185022495Y-87674580D02*
X184974876Y-87722200D01*
X184974876Y-87722200D02*
X184879638Y-87769819D01*
X184879638Y-87769819D02*
X184736781Y-87769819D01*
X185498686Y-87103152D02*
X185498686Y-88103152D01*
X185498686Y-87150771D02*
X185593924Y-87103152D01*
X185593924Y-87103152D02*
X185784400Y-87103152D01*
X185784400Y-87103152D02*
X185879638Y-87150771D01*
X185879638Y-87150771D02*
X185927257Y-87198390D01*
X185927257Y-87198390D02*
X185974876Y-87293628D01*
X185974876Y-87293628D02*
X185974876Y-87579342D01*
X185974876Y-87579342D02*
X185927257Y-87674580D01*
X185927257Y-87674580D02*
X185879638Y-87722200D01*
X185879638Y-87722200D02*
X185784400Y-87769819D01*
X185784400Y-87769819D02*
X185593924Y-87769819D01*
X185593924Y-87769819D02*
X185498686Y-87722200D01*
X186308210Y-88150771D02*
X186355829Y-88103152D01*
X186355829Y-88103152D02*
X186451067Y-87960295D01*
X186451067Y-87960295D02*
X186498686Y-87865057D01*
X186498686Y-87865057D02*
X186546305Y-87722200D01*
X186546305Y-87722200D02*
X186593924Y-87484104D01*
X186593924Y-87484104D02*
X186593924Y-87293628D01*
X186593924Y-87293628D02*
X186546305Y-87055533D01*
X186546305Y-87055533D02*
X186498686Y-86912676D01*
X186498686Y-86912676D02*
X186451067Y-86817438D01*
X186451067Y-86817438D02*
X186355829Y-86674580D01*
X186355829Y-86674580D02*
X186308210Y-86626961D01*
X187070115Y-87674580D02*
X187117734Y-87722200D01*
X187117734Y-87722200D02*
X187070115Y-87769819D01*
X187070115Y-87769819D02*
X187022496Y-87722200D01*
X187022496Y-87722200D02*
X187070115Y-87674580D01*
X187070115Y-87674580D02*
X187070115Y-87769819D01*
X187070115Y-87150771D02*
X187117734Y-87198390D01*
X187117734Y-87198390D02*
X187070115Y-87246009D01*
X187070115Y-87246009D02*
X187022496Y-87198390D01*
X187022496Y-87198390D02*
X187070115Y-87150771D01*
X187070115Y-87150771D02*
X187070115Y-87246009D01*
X177212969Y-97469819D02*
X176736779Y-97469819D01*
X176736779Y-97469819D02*
X176736779Y-96469819D01*
X177974874Y-97469819D02*
X177974874Y-96946009D01*
X177974874Y-96946009D02*
X177927255Y-96850771D01*
X177927255Y-96850771D02*
X177832017Y-96803152D01*
X177832017Y-96803152D02*
X177641541Y-96803152D01*
X177641541Y-96803152D02*
X177546303Y-96850771D01*
X177974874Y-97422200D02*
X177879636Y-97469819D01*
X177879636Y-97469819D02*
X177641541Y-97469819D01*
X177641541Y-97469819D02*
X177546303Y-97422200D01*
X177546303Y-97422200D02*
X177498684Y-97326961D01*
X177498684Y-97326961D02*
X177498684Y-97231723D01*
X177498684Y-97231723D02*
X177546303Y-97136485D01*
X177546303Y-97136485D02*
X177641541Y-97088866D01*
X177641541Y-97088866D02*
X177879636Y-97088866D01*
X177879636Y-97088866D02*
X177974874Y-97041247D01*
X178355827Y-96803152D02*
X178593922Y-97469819D01*
X178832017Y-96803152D02*
X178593922Y-97469819D01*
X178593922Y-97469819D02*
X178498684Y-97707914D01*
X178498684Y-97707914D02*
X178451065Y-97755533D01*
X178451065Y-97755533D02*
X178355827Y-97803152D01*
X179593922Y-97422200D02*
X179498684Y-97469819D01*
X179498684Y-97469819D02*
X179308208Y-97469819D01*
X179308208Y-97469819D02*
X179212970Y-97422200D01*
X179212970Y-97422200D02*
X179165351Y-97326961D01*
X179165351Y-97326961D02*
X179165351Y-96946009D01*
X179165351Y-96946009D02*
X179212970Y-96850771D01*
X179212970Y-96850771D02*
X179308208Y-96803152D01*
X179308208Y-96803152D02*
X179498684Y-96803152D01*
X179498684Y-96803152D02*
X179593922Y-96850771D01*
X179593922Y-96850771D02*
X179641541Y-96946009D01*
X179641541Y-96946009D02*
X179641541Y-97041247D01*
X179641541Y-97041247D02*
X179165351Y-97136485D01*
X180070113Y-97469819D02*
X180070113Y-96803152D01*
X180070113Y-96993628D02*
X180117732Y-96898390D01*
X180117732Y-96898390D02*
X180165351Y-96850771D01*
X180165351Y-96850771D02*
X180260589Y-96803152D01*
X180260589Y-96803152D02*
X180355827Y-96803152D01*
X181403447Y-96565057D02*
X181451066Y-96517438D01*
X181451066Y-96517438D02*
X181546304Y-96469819D01*
X181546304Y-96469819D02*
X181784399Y-96469819D01*
X181784399Y-96469819D02*
X181879637Y-96517438D01*
X181879637Y-96517438D02*
X181927256Y-96565057D01*
X181927256Y-96565057D02*
X181974875Y-96660295D01*
X181974875Y-96660295D02*
X181974875Y-96755533D01*
X181974875Y-96755533D02*
X181927256Y-96898390D01*
X181927256Y-96898390D02*
X181355828Y-97469819D01*
X181355828Y-97469819D02*
X181974875Y-97469819D01*
X183451066Y-97850771D02*
X183403447Y-97803152D01*
X183403447Y-97803152D02*
X183308209Y-97660295D01*
X183308209Y-97660295D02*
X183260590Y-97565057D01*
X183260590Y-97565057D02*
X183212971Y-97422200D01*
X183212971Y-97422200D02*
X183165352Y-97184104D01*
X183165352Y-97184104D02*
X183165352Y-96993628D01*
X183165352Y-96993628D02*
X183212971Y-96755533D01*
X183212971Y-96755533D02*
X183260590Y-96612676D01*
X183260590Y-96612676D02*
X183308209Y-96517438D01*
X183308209Y-96517438D02*
X183403447Y-96374580D01*
X183403447Y-96374580D02*
X183451066Y-96326961D01*
X184165352Y-96946009D02*
X184308209Y-96993628D01*
X184308209Y-96993628D02*
X184355828Y-97041247D01*
X184355828Y-97041247D02*
X184403447Y-97136485D01*
X184403447Y-97136485D02*
X184403447Y-97279342D01*
X184403447Y-97279342D02*
X184355828Y-97374580D01*
X184355828Y-97374580D02*
X184308209Y-97422200D01*
X184308209Y-97422200D02*
X184212971Y-97469819D01*
X184212971Y-97469819D02*
X183832019Y-97469819D01*
X183832019Y-97469819D02*
X183832019Y-96469819D01*
X183832019Y-96469819D02*
X184165352Y-96469819D01*
X184165352Y-96469819D02*
X184260590Y-96517438D01*
X184260590Y-96517438D02*
X184308209Y-96565057D01*
X184308209Y-96565057D02*
X184355828Y-96660295D01*
X184355828Y-96660295D02*
X184355828Y-96755533D01*
X184355828Y-96755533D02*
X184308209Y-96850771D01*
X184308209Y-96850771D02*
X184260590Y-96898390D01*
X184260590Y-96898390D02*
X184165352Y-96946009D01*
X184165352Y-96946009D02*
X183832019Y-96946009D01*
X184974876Y-97469819D02*
X184879638Y-97422200D01*
X184879638Y-97422200D02*
X184832019Y-97374580D01*
X184832019Y-97374580D02*
X184784400Y-97279342D01*
X184784400Y-97279342D02*
X184784400Y-96993628D01*
X184784400Y-96993628D02*
X184832019Y-96898390D01*
X184832019Y-96898390D02*
X184879638Y-96850771D01*
X184879638Y-96850771D02*
X184974876Y-96803152D01*
X184974876Y-96803152D02*
X185117733Y-96803152D01*
X185117733Y-96803152D02*
X185212971Y-96850771D01*
X185212971Y-96850771D02*
X185260590Y-96898390D01*
X185260590Y-96898390D02*
X185308209Y-96993628D01*
X185308209Y-96993628D02*
X185308209Y-97279342D01*
X185308209Y-97279342D02*
X185260590Y-97374580D01*
X185260590Y-97374580D02*
X185212971Y-97422200D01*
X185212971Y-97422200D02*
X185117733Y-97469819D01*
X185117733Y-97469819D02*
X184974876Y-97469819D01*
X185593924Y-96803152D02*
X185974876Y-96803152D01*
X185736781Y-96469819D02*
X185736781Y-97326961D01*
X185736781Y-97326961D02*
X185784400Y-97422200D01*
X185784400Y-97422200D02*
X185879638Y-97469819D01*
X185879638Y-97469819D02*
X185974876Y-97469819D01*
X186165353Y-96803152D02*
X186546305Y-96803152D01*
X186308210Y-96469819D02*
X186308210Y-97326961D01*
X186308210Y-97326961D02*
X186355829Y-97422200D01*
X186355829Y-97422200D02*
X186451067Y-97469819D01*
X186451067Y-97469819D02*
X186546305Y-97469819D01*
X187022496Y-97469819D02*
X186927258Y-97422200D01*
X186927258Y-97422200D02*
X186879639Y-97374580D01*
X186879639Y-97374580D02*
X186832020Y-97279342D01*
X186832020Y-97279342D02*
X186832020Y-96993628D01*
X186832020Y-96993628D02*
X186879639Y-96898390D01*
X186879639Y-96898390D02*
X186927258Y-96850771D01*
X186927258Y-96850771D02*
X187022496Y-96803152D01*
X187022496Y-96803152D02*
X187165353Y-96803152D01*
X187165353Y-96803152D02*
X187260591Y-96850771D01*
X187260591Y-96850771D02*
X187308210Y-96898390D01*
X187308210Y-96898390D02*
X187355829Y-96993628D01*
X187355829Y-96993628D02*
X187355829Y-97279342D01*
X187355829Y-97279342D02*
X187308210Y-97374580D01*
X187308210Y-97374580D02*
X187260591Y-97422200D01*
X187260591Y-97422200D02*
X187165353Y-97469819D01*
X187165353Y-97469819D02*
X187022496Y-97469819D01*
X187784401Y-97469819D02*
X187784401Y-96803152D01*
X187784401Y-96898390D02*
X187832020Y-96850771D01*
X187832020Y-96850771D02*
X187927258Y-96803152D01*
X187927258Y-96803152D02*
X188070115Y-96803152D01*
X188070115Y-96803152D02*
X188165353Y-96850771D01*
X188165353Y-96850771D02*
X188212972Y-96946009D01*
X188212972Y-96946009D02*
X188212972Y-97469819D01*
X188212972Y-96946009D02*
X188260591Y-96850771D01*
X188260591Y-96850771D02*
X188355829Y-96803152D01*
X188355829Y-96803152D02*
X188498686Y-96803152D01*
X188498686Y-96803152D02*
X188593925Y-96850771D01*
X188593925Y-96850771D02*
X188641544Y-96946009D01*
X188641544Y-96946009D02*
X188641544Y-97469819D01*
X189022496Y-97850771D02*
X189070115Y-97803152D01*
X189070115Y-97803152D02*
X189165353Y-97660295D01*
X189165353Y-97660295D02*
X189212972Y-97565057D01*
X189212972Y-97565057D02*
X189260591Y-97422200D01*
X189260591Y-97422200D02*
X189308210Y-97184104D01*
X189308210Y-97184104D02*
X189308210Y-96993628D01*
X189308210Y-96993628D02*
X189260591Y-96755533D01*
X189260591Y-96755533D02*
X189212972Y-96612676D01*
X189212972Y-96612676D02*
X189165353Y-96517438D01*
X189165353Y-96517438D02*
X189070115Y-96374580D01*
X189070115Y-96374580D02*
X189022496Y-96326961D01*
X189784401Y-97374580D02*
X189832020Y-97422200D01*
X189832020Y-97422200D02*
X189784401Y-97469819D01*
X189784401Y-97469819D02*
X189736782Y-97422200D01*
X189736782Y-97422200D02*
X189784401Y-97374580D01*
X189784401Y-97374580D02*
X189784401Y-97469819D01*
X189784401Y-96850771D02*
X189832020Y-96898390D01*
X189832020Y-96898390D02*
X189784401Y-96946009D01*
X189784401Y-96946009D02*
X189736782Y-96898390D01*
X189736782Y-96898390D02*
X189784401Y-96850771D01*
X189784401Y-96850771D02*
X189784401Y-96946009D01*
X175312969Y-85569819D02*
X174836779Y-85569819D01*
X174836779Y-85569819D02*
X174836779Y-84569819D01*
X176074874Y-85569819D02*
X176074874Y-85046009D01*
X176074874Y-85046009D02*
X176027255Y-84950771D01*
X176027255Y-84950771D02*
X175932017Y-84903152D01*
X175932017Y-84903152D02*
X175741541Y-84903152D01*
X175741541Y-84903152D02*
X175646303Y-84950771D01*
X176074874Y-85522200D02*
X175979636Y-85569819D01*
X175979636Y-85569819D02*
X175741541Y-85569819D01*
X175741541Y-85569819D02*
X175646303Y-85522200D01*
X175646303Y-85522200D02*
X175598684Y-85426961D01*
X175598684Y-85426961D02*
X175598684Y-85331723D01*
X175598684Y-85331723D02*
X175646303Y-85236485D01*
X175646303Y-85236485D02*
X175741541Y-85188866D01*
X175741541Y-85188866D02*
X175979636Y-85188866D01*
X175979636Y-85188866D02*
X176074874Y-85141247D01*
X176455827Y-84903152D02*
X176693922Y-85569819D01*
X176932017Y-84903152D02*
X176693922Y-85569819D01*
X176693922Y-85569819D02*
X176598684Y-85807914D01*
X176598684Y-85807914D02*
X176551065Y-85855533D01*
X176551065Y-85855533D02*
X176455827Y-85903152D01*
X177693922Y-85522200D02*
X177598684Y-85569819D01*
X177598684Y-85569819D02*
X177408208Y-85569819D01*
X177408208Y-85569819D02*
X177312970Y-85522200D01*
X177312970Y-85522200D02*
X177265351Y-85426961D01*
X177265351Y-85426961D02*
X177265351Y-85046009D01*
X177265351Y-85046009D02*
X177312970Y-84950771D01*
X177312970Y-84950771D02*
X177408208Y-84903152D01*
X177408208Y-84903152D02*
X177598684Y-84903152D01*
X177598684Y-84903152D02*
X177693922Y-84950771D01*
X177693922Y-84950771D02*
X177741541Y-85046009D01*
X177741541Y-85046009D02*
X177741541Y-85141247D01*
X177741541Y-85141247D02*
X177265351Y-85236485D01*
X178170113Y-85569819D02*
X178170113Y-84903152D01*
X178170113Y-85093628D02*
X178217732Y-84998390D01*
X178217732Y-84998390D02*
X178265351Y-84950771D01*
X178265351Y-84950771D02*
X178360589Y-84903152D01*
X178360589Y-84903152D02*
X178455827Y-84903152D01*
X178741542Y-85522200D02*
X178836780Y-85569819D01*
X178836780Y-85569819D02*
X179027256Y-85569819D01*
X179027256Y-85569819D02*
X179122494Y-85522200D01*
X179122494Y-85522200D02*
X179170113Y-85426961D01*
X179170113Y-85426961D02*
X179170113Y-85379342D01*
X179170113Y-85379342D02*
X179122494Y-85284104D01*
X179122494Y-85284104D02*
X179027256Y-85236485D01*
X179027256Y-85236485D02*
X178884399Y-85236485D01*
X178884399Y-85236485D02*
X178789161Y-85188866D01*
X178789161Y-85188866D02*
X178741542Y-85093628D01*
X178741542Y-85093628D02*
X178741542Y-85046009D01*
X178741542Y-85046009D02*
X178789161Y-84950771D01*
X178789161Y-84950771D02*
X178884399Y-84903152D01*
X178884399Y-84903152D02*
X179027256Y-84903152D01*
X179027256Y-84903152D02*
X179122494Y-84950771D01*
X179598685Y-85474580D02*
X179646304Y-85522200D01*
X179646304Y-85522200D02*
X179598685Y-85569819D01*
X179598685Y-85569819D02*
X179551066Y-85522200D01*
X179551066Y-85522200D02*
X179598685Y-85474580D01*
X179598685Y-85474580D02*
X179598685Y-85569819D01*
X179598685Y-84950771D02*
X179646304Y-84998390D01*
X179646304Y-84998390D02*
X179598685Y-85046009D01*
X179598685Y-85046009D02*
X179551066Y-84998390D01*
X179551066Y-84998390D02*
X179598685Y-84950771D01*
X179598685Y-84950771D02*
X179598685Y-85046009D01*
X194593922Y-84649819D02*
X195165350Y-84649819D01*
X194879636Y-85649819D02*
X194879636Y-84649819D01*
X195498684Y-85649819D02*
X195498684Y-84983152D01*
X195498684Y-84649819D02*
X195451065Y-84697438D01*
X195451065Y-84697438D02*
X195498684Y-84745057D01*
X195498684Y-84745057D02*
X195546303Y-84697438D01*
X195546303Y-84697438D02*
X195498684Y-84649819D01*
X195498684Y-84649819D02*
X195498684Y-84745057D01*
X195832017Y-84983152D02*
X196212969Y-84983152D01*
X195974874Y-84649819D02*
X195974874Y-85506961D01*
X195974874Y-85506961D02*
X196022493Y-85602200D01*
X196022493Y-85602200D02*
X196117731Y-85649819D01*
X196117731Y-85649819D02*
X196212969Y-85649819D01*
X196689160Y-85649819D02*
X196593922Y-85602200D01*
X196593922Y-85602200D02*
X196546303Y-85506961D01*
X196546303Y-85506961D02*
X196546303Y-84649819D01*
X197451065Y-85602200D02*
X197355827Y-85649819D01*
X197355827Y-85649819D02*
X197165351Y-85649819D01*
X197165351Y-85649819D02*
X197070113Y-85602200D01*
X197070113Y-85602200D02*
X197022494Y-85506961D01*
X197022494Y-85506961D02*
X197022494Y-85126009D01*
X197022494Y-85126009D02*
X197070113Y-85030771D01*
X197070113Y-85030771D02*
X197165351Y-84983152D01*
X197165351Y-84983152D02*
X197355827Y-84983152D01*
X197355827Y-84983152D02*
X197451065Y-85030771D01*
X197451065Y-85030771D02*
X197498684Y-85126009D01*
X197498684Y-85126009D02*
X197498684Y-85221247D01*
X197498684Y-85221247D02*
X197022494Y-85316485D01*
X197927256Y-85554580D02*
X197974875Y-85602200D01*
X197974875Y-85602200D02*
X197927256Y-85649819D01*
X197927256Y-85649819D02*
X197879637Y-85602200D01*
X197879637Y-85602200D02*
X197927256Y-85554580D01*
X197927256Y-85554580D02*
X197927256Y-85649819D01*
X197927256Y-85030771D02*
X197974875Y-85078390D01*
X197974875Y-85078390D02*
X197927256Y-85126009D01*
X197927256Y-85126009D02*
X197879637Y-85078390D01*
X197879637Y-85078390D02*
X197927256Y-85030771D01*
X197927256Y-85030771D02*
X197927256Y-85126009D01*
X199736779Y-85649819D02*
X199403446Y-85173628D01*
X199165351Y-85649819D02*
X199165351Y-84649819D01*
X199165351Y-84649819D02*
X199546303Y-84649819D01*
X199546303Y-84649819D02*
X199641541Y-84697438D01*
X199641541Y-84697438D02*
X199689160Y-84745057D01*
X199689160Y-84745057D02*
X199736779Y-84840295D01*
X199736779Y-84840295D02*
X199736779Y-84983152D01*
X199736779Y-84983152D02*
X199689160Y-85078390D01*
X199689160Y-85078390D02*
X199641541Y-85126009D01*
X199641541Y-85126009D02*
X199546303Y-85173628D01*
X199546303Y-85173628D02*
X199165351Y-85173628D01*
X200641541Y-85649819D02*
X200165351Y-85649819D01*
X200165351Y-85649819D02*
X200165351Y-84649819D01*
X200879637Y-84649819D02*
X201546303Y-84649819D01*
X201546303Y-84649819D02*
X201117732Y-85649819D01*
X202070113Y-85078390D02*
X201974875Y-85030771D01*
X201974875Y-85030771D02*
X201927256Y-84983152D01*
X201927256Y-84983152D02*
X201879637Y-84887914D01*
X201879637Y-84887914D02*
X201879637Y-84840295D01*
X201879637Y-84840295D02*
X201927256Y-84745057D01*
X201927256Y-84745057D02*
X201974875Y-84697438D01*
X201974875Y-84697438D02*
X202070113Y-84649819D01*
X202070113Y-84649819D02*
X202260589Y-84649819D01*
X202260589Y-84649819D02*
X202355827Y-84697438D01*
X202355827Y-84697438D02*
X202403446Y-84745057D01*
X202403446Y-84745057D02*
X202451065Y-84840295D01*
X202451065Y-84840295D02*
X202451065Y-84887914D01*
X202451065Y-84887914D02*
X202403446Y-84983152D01*
X202403446Y-84983152D02*
X202355827Y-85030771D01*
X202355827Y-85030771D02*
X202260589Y-85078390D01*
X202260589Y-85078390D02*
X202070113Y-85078390D01*
X202070113Y-85078390D02*
X201974875Y-85126009D01*
X201974875Y-85126009D02*
X201927256Y-85173628D01*
X201927256Y-85173628D02*
X201879637Y-85268866D01*
X201879637Y-85268866D02*
X201879637Y-85459342D01*
X201879637Y-85459342D02*
X201927256Y-85554580D01*
X201927256Y-85554580D02*
X201974875Y-85602200D01*
X201974875Y-85602200D02*
X202070113Y-85649819D01*
X202070113Y-85649819D02*
X202260589Y-85649819D01*
X202260589Y-85649819D02*
X202355827Y-85602200D01*
X202355827Y-85602200D02*
X202403446Y-85554580D01*
X202403446Y-85554580D02*
X202451065Y-85459342D01*
X202451065Y-85459342D02*
X202451065Y-85268866D01*
X202451065Y-85268866D02*
X202403446Y-85173628D01*
X202403446Y-85173628D02*
X202355827Y-85126009D01*
X202355827Y-85126009D02*
X202260589Y-85078390D01*
X202879637Y-85649819D02*
X202879637Y-84649819D01*
X203879636Y-85649819D02*
X203308208Y-85649819D01*
X203593922Y-85649819D02*
X203593922Y-84649819D01*
X203593922Y-84649819D02*
X203498684Y-84792676D01*
X203498684Y-84792676D02*
X203403446Y-84887914D01*
X203403446Y-84887914D02*
X203308208Y-84935533D01*
X204879636Y-85554580D02*
X204832017Y-85602200D01*
X204832017Y-85602200D02*
X204689160Y-85649819D01*
X204689160Y-85649819D02*
X204593922Y-85649819D01*
X204593922Y-85649819D02*
X204451065Y-85602200D01*
X204451065Y-85602200D02*
X204355827Y-85506961D01*
X204355827Y-85506961D02*
X204308208Y-85411723D01*
X204308208Y-85411723D02*
X204260589Y-85221247D01*
X204260589Y-85221247D02*
X204260589Y-85078390D01*
X204260589Y-85078390D02*
X204308208Y-84887914D01*
X204308208Y-84887914D02*
X204355827Y-84792676D01*
X204355827Y-84792676D02*
X204451065Y-84697438D01*
X204451065Y-84697438D02*
X204593922Y-84649819D01*
X204593922Y-84649819D02*
X204689160Y-84649819D01*
X204689160Y-84649819D02*
X204832017Y-84697438D01*
X204832017Y-84697438D02*
X204879636Y-84745057D01*
X205070113Y-85745057D02*
X205832017Y-85745057D01*
X206070113Y-85649819D02*
X206070113Y-84649819D01*
X206070113Y-84649819D02*
X206451065Y-84649819D01*
X206451065Y-84649819D02*
X206546303Y-84697438D01*
X206546303Y-84697438D02*
X206593922Y-84745057D01*
X206593922Y-84745057D02*
X206641541Y-84840295D01*
X206641541Y-84840295D02*
X206641541Y-84983152D01*
X206641541Y-84983152D02*
X206593922Y-85078390D01*
X206593922Y-85078390D02*
X206546303Y-85126009D01*
X206546303Y-85126009D02*
X206451065Y-85173628D01*
X206451065Y-85173628D02*
X206070113Y-85173628D01*
X207070113Y-85649819D02*
X207070113Y-84649819D01*
X207070113Y-84649819D02*
X207403446Y-85364104D01*
X207403446Y-85364104D02*
X207736779Y-84649819D01*
X207736779Y-84649819D02*
X207736779Y-85649819D01*
X208403446Y-84649819D02*
X208593922Y-84649819D01*
X208593922Y-84649819D02*
X208689160Y-84697438D01*
X208689160Y-84697438D02*
X208784398Y-84792676D01*
X208784398Y-84792676D02*
X208832017Y-84983152D01*
X208832017Y-84983152D02*
X208832017Y-85316485D01*
X208832017Y-85316485D02*
X208784398Y-85506961D01*
X208784398Y-85506961D02*
X208689160Y-85602200D01*
X208689160Y-85602200D02*
X208593922Y-85649819D01*
X208593922Y-85649819D02*
X208403446Y-85649819D01*
X208403446Y-85649819D02*
X208308208Y-85602200D01*
X208308208Y-85602200D02*
X208212970Y-85506961D01*
X208212970Y-85506961D02*
X208165351Y-85316485D01*
X208165351Y-85316485D02*
X208165351Y-84983152D01*
X208165351Y-84983152D02*
X208212970Y-84792676D01*
X208212970Y-84792676D02*
X208308208Y-84697438D01*
X208308208Y-84697438D02*
X208403446Y-84649819D01*
X209260589Y-85649819D02*
X209260589Y-84649819D01*
X209260589Y-84649819D02*
X209498684Y-84649819D01*
X209498684Y-84649819D02*
X209641541Y-84697438D01*
X209641541Y-84697438D02*
X209736779Y-84792676D01*
X209736779Y-84792676D02*
X209784398Y-84887914D01*
X209784398Y-84887914D02*
X209832017Y-85078390D01*
X209832017Y-85078390D02*
X209832017Y-85221247D01*
X209832017Y-85221247D02*
X209784398Y-85411723D01*
X209784398Y-85411723D02*
X209736779Y-85506961D01*
X209736779Y-85506961D02*
X209641541Y-85602200D01*
X209641541Y-85602200D02*
X209498684Y-85649819D01*
X209498684Y-85649819D02*
X209260589Y-85649819D01*
X210022494Y-85745057D02*
X210784398Y-85745057D01*
X211022494Y-85649819D02*
X211022494Y-84649819D01*
X211022494Y-84649819D02*
X211403446Y-84649819D01*
X211403446Y-84649819D02*
X211498684Y-84697438D01*
X211498684Y-84697438D02*
X211546303Y-84745057D01*
X211546303Y-84745057D02*
X211593922Y-84840295D01*
X211593922Y-84840295D02*
X211593922Y-84983152D01*
X211593922Y-84983152D02*
X211546303Y-85078390D01*
X211546303Y-85078390D02*
X211498684Y-85126009D01*
X211498684Y-85126009D02*
X211403446Y-85173628D01*
X211403446Y-85173628D02*
X211022494Y-85173628D01*
X212593922Y-85649819D02*
X212260589Y-85173628D01*
X212022494Y-85649819D02*
X212022494Y-84649819D01*
X212022494Y-84649819D02*
X212403446Y-84649819D01*
X212403446Y-84649819D02*
X212498684Y-84697438D01*
X212498684Y-84697438D02*
X212546303Y-84745057D01*
X212546303Y-84745057D02*
X212593922Y-84840295D01*
X212593922Y-84840295D02*
X212593922Y-84983152D01*
X212593922Y-84983152D02*
X212546303Y-85078390D01*
X212546303Y-85078390D02*
X212498684Y-85126009D01*
X212498684Y-85126009D02*
X212403446Y-85173628D01*
X212403446Y-85173628D02*
X212022494Y-85173628D01*
X213212970Y-84649819D02*
X213403446Y-84649819D01*
X213403446Y-84649819D02*
X213498684Y-84697438D01*
X213498684Y-84697438D02*
X213593922Y-84792676D01*
X213593922Y-84792676D02*
X213641541Y-84983152D01*
X213641541Y-84983152D02*
X213641541Y-85316485D01*
X213641541Y-85316485D02*
X213593922Y-85506961D01*
X213593922Y-85506961D02*
X213498684Y-85602200D01*
X213498684Y-85602200D02*
X213403446Y-85649819D01*
X213403446Y-85649819D02*
X213212970Y-85649819D01*
X213212970Y-85649819D02*
X213117732Y-85602200D01*
X213117732Y-85602200D02*
X213022494Y-85506961D01*
X213022494Y-85506961D02*
X212974875Y-85316485D01*
X212974875Y-85316485D02*
X212974875Y-84983152D01*
X212974875Y-84983152D02*
X213022494Y-84792676D01*
X213022494Y-84792676D02*
X213117732Y-84697438D01*
X213117732Y-84697438D02*
X213212970Y-84649819D01*
X214593922Y-84697438D02*
X214498684Y-84649819D01*
X214498684Y-84649819D02*
X214355827Y-84649819D01*
X214355827Y-84649819D02*
X214212970Y-84697438D01*
X214212970Y-84697438D02*
X214117732Y-84792676D01*
X214117732Y-84792676D02*
X214070113Y-84887914D01*
X214070113Y-84887914D02*
X214022494Y-85078390D01*
X214022494Y-85078390D02*
X214022494Y-85221247D01*
X214022494Y-85221247D02*
X214070113Y-85411723D01*
X214070113Y-85411723D02*
X214117732Y-85506961D01*
X214117732Y-85506961D02*
X214212970Y-85602200D01*
X214212970Y-85602200D02*
X214355827Y-85649819D01*
X214355827Y-85649819D02*
X214451065Y-85649819D01*
X214451065Y-85649819D02*
X214593922Y-85602200D01*
X214593922Y-85602200D02*
X214641541Y-85554580D01*
X214641541Y-85554580D02*
X214641541Y-85221247D01*
X214641541Y-85221247D02*
X214451065Y-85221247D01*
X214832018Y-85745057D02*
X215593922Y-85745057D01*
X215784399Y-85364104D02*
X216260589Y-85364104D01*
X215689161Y-85649819D02*
X216022494Y-84649819D01*
X216022494Y-84649819D02*
X216355827Y-85649819D01*
X216689161Y-85649819D02*
X216689161Y-84649819D01*
X216689161Y-84649819D02*
X216927256Y-84649819D01*
X216927256Y-84649819D02*
X217070113Y-84697438D01*
X217070113Y-84697438D02*
X217165351Y-84792676D01*
X217165351Y-84792676D02*
X217212970Y-84887914D01*
X217212970Y-84887914D02*
X217260589Y-85078390D01*
X217260589Y-85078390D02*
X217260589Y-85221247D01*
X217260589Y-85221247D02*
X217212970Y-85411723D01*
X217212970Y-85411723D02*
X217165351Y-85506961D01*
X217165351Y-85506961D02*
X217070113Y-85602200D01*
X217070113Y-85602200D02*
X216927256Y-85649819D01*
X216927256Y-85649819D02*
X216689161Y-85649819D01*
X217641542Y-85364104D02*
X218117732Y-85364104D01*
X217546304Y-85649819D02*
X217879637Y-84649819D01*
X217879637Y-84649819D02*
X218212970Y-85649819D01*
X218546304Y-85649819D02*
X218546304Y-84649819D01*
X218546304Y-84649819D02*
X218927256Y-84649819D01*
X218927256Y-84649819D02*
X219022494Y-84697438D01*
X219022494Y-84697438D02*
X219070113Y-84745057D01*
X219070113Y-84745057D02*
X219117732Y-84840295D01*
X219117732Y-84840295D02*
X219117732Y-84983152D01*
X219117732Y-84983152D02*
X219070113Y-85078390D01*
X219070113Y-85078390D02*
X219022494Y-85126009D01*
X219022494Y-85126009D02*
X218927256Y-85173628D01*
X218927256Y-85173628D02*
X218546304Y-85173628D01*
X219403447Y-84649819D02*
X219974875Y-84649819D01*
X219689161Y-85649819D02*
X219689161Y-84649819D01*
X220498685Y-84649819D02*
X220689161Y-84649819D01*
X220689161Y-84649819D02*
X220784399Y-84697438D01*
X220784399Y-84697438D02*
X220879637Y-84792676D01*
X220879637Y-84792676D02*
X220927256Y-84983152D01*
X220927256Y-84983152D02*
X220927256Y-85316485D01*
X220927256Y-85316485D02*
X220879637Y-85506961D01*
X220879637Y-85506961D02*
X220784399Y-85602200D01*
X220784399Y-85602200D02*
X220689161Y-85649819D01*
X220689161Y-85649819D02*
X220498685Y-85649819D01*
X220498685Y-85649819D02*
X220403447Y-85602200D01*
X220403447Y-85602200D02*
X220308209Y-85506961D01*
X220308209Y-85506961D02*
X220260590Y-85316485D01*
X220260590Y-85316485D02*
X220260590Y-84983152D01*
X220260590Y-84983152D02*
X220308209Y-84792676D01*
X220308209Y-84792676D02*
X220403447Y-84697438D01*
X220403447Y-84697438D02*
X220498685Y-84649819D01*
X221927256Y-85649819D02*
X221593923Y-85173628D01*
X221355828Y-85649819D02*
X221355828Y-84649819D01*
X221355828Y-84649819D02*
X221736780Y-84649819D01*
X221736780Y-84649819D02*
X221832018Y-84697438D01*
X221832018Y-84697438D02*
X221879637Y-84745057D01*
X221879637Y-84745057D02*
X221927256Y-84840295D01*
X221927256Y-84840295D02*
X221927256Y-84983152D01*
X221927256Y-84983152D02*
X221879637Y-85078390D01*
X221879637Y-85078390D02*
X221832018Y-85126009D01*
X221832018Y-85126009D02*
X221736780Y-85173628D01*
X221736780Y-85173628D02*
X221355828Y-85173628D01*
X222117733Y-85745057D02*
X222879637Y-85745057D01*
X223117733Y-85649819D02*
X223117733Y-84649819D01*
X223117733Y-84649819D02*
X223689161Y-85649819D01*
X223689161Y-85649819D02*
X223689161Y-84649819D01*
X224355828Y-84649819D02*
X224546304Y-84649819D01*
X224546304Y-84649819D02*
X224641542Y-84697438D01*
X224641542Y-84697438D02*
X224736780Y-84792676D01*
X224736780Y-84792676D02*
X224784399Y-84983152D01*
X224784399Y-84983152D02*
X224784399Y-85316485D01*
X224784399Y-85316485D02*
X224736780Y-85506961D01*
X224736780Y-85506961D02*
X224641542Y-85602200D01*
X224641542Y-85602200D02*
X224546304Y-85649819D01*
X224546304Y-85649819D02*
X224355828Y-85649819D01*
X224355828Y-85649819D02*
X224260590Y-85602200D01*
X224260590Y-85602200D02*
X224165352Y-85506961D01*
X224165352Y-85506961D02*
X224117733Y-85316485D01*
X224117733Y-85316485D02*
X224117733Y-84983152D01*
X224117733Y-84983152D02*
X224165352Y-84792676D01*
X224165352Y-84792676D02*
X224260590Y-84697438D01*
X224260590Y-84697438D02*
X224355828Y-84649819D01*
X225212971Y-85649819D02*
X225212971Y-84649819D01*
X225212971Y-84649819D02*
X225784399Y-85649819D01*
X225784399Y-85649819D02*
X225784399Y-84649819D01*
X226022495Y-85745057D02*
X226784399Y-85745057D01*
X227022495Y-85649819D02*
X227022495Y-84649819D01*
X227451066Y-85602200D02*
X227593923Y-85649819D01*
X227593923Y-85649819D02*
X227832018Y-85649819D01*
X227832018Y-85649819D02*
X227927256Y-85602200D01*
X227927256Y-85602200D02*
X227974875Y-85554580D01*
X227974875Y-85554580D02*
X228022494Y-85459342D01*
X228022494Y-85459342D02*
X228022494Y-85364104D01*
X228022494Y-85364104D02*
X227974875Y-85268866D01*
X227974875Y-85268866D02*
X227927256Y-85221247D01*
X227927256Y-85221247D02*
X227832018Y-85173628D01*
X227832018Y-85173628D02*
X227641542Y-85126009D01*
X227641542Y-85126009D02*
X227546304Y-85078390D01*
X227546304Y-85078390D02*
X227498685Y-85030771D01*
X227498685Y-85030771D02*
X227451066Y-84935533D01*
X227451066Y-84935533D02*
X227451066Y-84840295D01*
X227451066Y-84840295D02*
X227498685Y-84745057D01*
X227498685Y-84745057D02*
X227546304Y-84697438D01*
X227546304Y-84697438D02*
X227641542Y-84649819D01*
X227641542Y-84649819D02*
X227879637Y-84649819D01*
X227879637Y-84649819D02*
X228022494Y-84697438D01*
X228641542Y-84649819D02*
X228832018Y-84649819D01*
X228832018Y-84649819D02*
X228927256Y-84697438D01*
X228927256Y-84697438D02*
X229022494Y-84792676D01*
X229022494Y-84792676D02*
X229070113Y-84983152D01*
X229070113Y-84983152D02*
X229070113Y-85316485D01*
X229070113Y-85316485D02*
X229022494Y-85506961D01*
X229022494Y-85506961D02*
X228927256Y-85602200D01*
X228927256Y-85602200D02*
X228832018Y-85649819D01*
X228832018Y-85649819D02*
X228641542Y-85649819D01*
X228641542Y-85649819D02*
X228546304Y-85602200D01*
X228546304Y-85602200D02*
X228451066Y-85506961D01*
X228451066Y-85506961D02*
X228403447Y-85316485D01*
X228403447Y-85316485D02*
X228403447Y-84983152D01*
X228403447Y-84983152D02*
X228451066Y-84792676D01*
X228451066Y-84792676D02*
X228546304Y-84697438D01*
X228546304Y-84697438D02*
X228641542Y-84649819D01*
X194593922Y-86259819D02*
X194927255Y-87259819D01*
X194927255Y-87259819D02*
X195260588Y-86259819D01*
X195974874Y-87212200D02*
X195879636Y-87259819D01*
X195879636Y-87259819D02*
X195689160Y-87259819D01*
X195689160Y-87259819D02*
X195593922Y-87212200D01*
X195593922Y-87212200D02*
X195546303Y-87116961D01*
X195546303Y-87116961D02*
X195546303Y-86736009D01*
X195546303Y-86736009D02*
X195593922Y-86640771D01*
X195593922Y-86640771D02*
X195689160Y-86593152D01*
X195689160Y-86593152D02*
X195879636Y-86593152D01*
X195879636Y-86593152D02*
X195974874Y-86640771D01*
X195974874Y-86640771D02*
X196022493Y-86736009D01*
X196022493Y-86736009D02*
X196022493Y-86831247D01*
X196022493Y-86831247D02*
X195546303Y-86926485D01*
X196451065Y-87259819D02*
X196451065Y-86593152D01*
X196451065Y-86783628D02*
X196498684Y-86688390D01*
X196498684Y-86688390D02*
X196546303Y-86640771D01*
X196546303Y-86640771D02*
X196641541Y-86593152D01*
X196641541Y-86593152D02*
X196736779Y-86593152D01*
X197022494Y-87212200D02*
X197117732Y-87259819D01*
X197117732Y-87259819D02*
X197308208Y-87259819D01*
X197308208Y-87259819D02*
X197403446Y-87212200D01*
X197403446Y-87212200D02*
X197451065Y-87116961D01*
X197451065Y-87116961D02*
X197451065Y-87069342D01*
X197451065Y-87069342D02*
X197403446Y-86974104D01*
X197403446Y-86974104D02*
X197308208Y-86926485D01*
X197308208Y-86926485D02*
X197165351Y-86926485D01*
X197165351Y-86926485D02*
X197070113Y-86878866D01*
X197070113Y-86878866D02*
X197022494Y-86783628D01*
X197022494Y-86783628D02*
X197022494Y-86736009D01*
X197022494Y-86736009D02*
X197070113Y-86640771D01*
X197070113Y-86640771D02*
X197165351Y-86593152D01*
X197165351Y-86593152D02*
X197308208Y-86593152D01*
X197308208Y-86593152D02*
X197403446Y-86640771D01*
X197879637Y-87259819D02*
X197879637Y-86593152D01*
X197879637Y-86259819D02*
X197832018Y-86307438D01*
X197832018Y-86307438D02*
X197879637Y-86355057D01*
X197879637Y-86355057D02*
X197927256Y-86307438D01*
X197927256Y-86307438D02*
X197879637Y-86259819D01*
X197879637Y-86259819D02*
X197879637Y-86355057D01*
X198498684Y-87259819D02*
X198403446Y-87212200D01*
X198403446Y-87212200D02*
X198355827Y-87164580D01*
X198355827Y-87164580D02*
X198308208Y-87069342D01*
X198308208Y-87069342D02*
X198308208Y-86783628D01*
X198308208Y-86783628D02*
X198355827Y-86688390D01*
X198355827Y-86688390D02*
X198403446Y-86640771D01*
X198403446Y-86640771D02*
X198498684Y-86593152D01*
X198498684Y-86593152D02*
X198641541Y-86593152D01*
X198641541Y-86593152D02*
X198736779Y-86640771D01*
X198736779Y-86640771D02*
X198784398Y-86688390D01*
X198784398Y-86688390D02*
X198832017Y-86783628D01*
X198832017Y-86783628D02*
X198832017Y-87069342D01*
X198832017Y-87069342D02*
X198784398Y-87164580D01*
X198784398Y-87164580D02*
X198736779Y-87212200D01*
X198736779Y-87212200D02*
X198641541Y-87259819D01*
X198641541Y-87259819D02*
X198498684Y-87259819D01*
X199260589Y-86593152D02*
X199260589Y-87259819D01*
X199260589Y-86688390D02*
X199308208Y-86640771D01*
X199308208Y-86640771D02*
X199403446Y-86593152D01*
X199403446Y-86593152D02*
X199546303Y-86593152D01*
X199546303Y-86593152D02*
X199641541Y-86640771D01*
X199641541Y-86640771D02*
X199689160Y-86736009D01*
X199689160Y-86736009D02*
X199689160Y-87259819D01*
X200165351Y-87164580D02*
X200212970Y-87212200D01*
X200212970Y-87212200D02*
X200165351Y-87259819D01*
X200165351Y-87259819D02*
X200117732Y-87212200D01*
X200117732Y-87212200D02*
X200165351Y-87164580D01*
X200165351Y-87164580D02*
X200165351Y-87259819D01*
X200165351Y-86640771D02*
X200212970Y-86688390D01*
X200212970Y-86688390D02*
X200165351Y-86736009D01*
X200165351Y-86736009D02*
X200117732Y-86688390D01*
X200117732Y-86688390D02*
X200165351Y-86640771D01*
X200165351Y-86640771D02*
X200165351Y-86736009D01*
X201927255Y-87259819D02*
X201355827Y-87259819D01*
X201641541Y-87259819D02*
X201641541Y-86259819D01*
X201641541Y-86259819D02*
X201546303Y-86402676D01*
X201546303Y-86402676D02*
X201451065Y-86497914D01*
X201451065Y-86497914D02*
X201355827Y-86545533D01*
X202355827Y-87164580D02*
X202403446Y-87212200D01*
X202403446Y-87212200D02*
X202355827Y-87259819D01*
X202355827Y-87259819D02*
X202308208Y-87212200D01*
X202308208Y-87212200D02*
X202355827Y-87164580D01*
X202355827Y-87164580D02*
X202355827Y-87259819D01*
X203022493Y-86259819D02*
X203117731Y-86259819D01*
X203117731Y-86259819D02*
X203212969Y-86307438D01*
X203212969Y-86307438D02*
X203260588Y-86355057D01*
X203260588Y-86355057D02*
X203308207Y-86450295D01*
X203308207Y-86450295D02*
X203355826Y-86640771D01*
X203355826Y-86640771D02*
X203355826Y-86878866D01*
X203355826Y-86878866D02*
X203308207Y-87069342D01*
X203308207Y-87069342D02*
X203260588Y-87164580D01*
X203260588Y-87164580D02*
X203212969Y-87212200D01*
X203212969Y-87212200D02*
X203117731Y-87259819D01*
X203117731Y-87259819D02*
X203022493Y-87259819D01*
X203022493Y-87259819D02*
X202927255Y-87212200D01*
X202927255Y-87212200D02*
X202879636Y-87164580D01*
X202879636Y-87164580D02*
X202832017Y-87069342D01*
X202832017Y-87069342D02*
X202784398Y-86878866D01*
X202784398Y-86878866D02*
X202784398Y-86640771D01*
X202784398Y-86640771D02*
X202832017Y-86450295D01*
X202832017Y-86450295D02*
X202879636Y-86355057D01*
X202879636Y-86355057D02*
X202927255Y-86307438D01*
X202927255Y-86307438D02*
X203022493Y-86259819D01*
X203974874Y-86259819D02*
X204070112Y-86259819D01*
X204070112Y-86259819D02*
X204165350Y-86307438D01*
X204165350Y-86307438D02*
X204212969Y-86355057D01*
X204212969Y-86355057D02*
X204260588Y-86450295D01*
X204260588Y-86450295D02*
X204308207Y-86640771D01*
X204308207Y-86640771D02*
X204308207Y-86878866D01*
X204308207Y-86878866D02*
X204260588Y-87069342D01*
X204260588Y-87069342D02*
X204212969Y-87164580D01*
X204212969Y-87164580D02*
X204165350Y-87212200D01*
X204165350Y-87212200D02*
X204070112Y-87259819D01*
X204070112Y-87259819D02*
X203974874Y-87259819D01*
X203974874Y-87259819D02*
X203879636Y-87212200D01*
X203879636Y-87212200D02*
X203832017Y-87164580D01*
X203832017Y-87164580D02*
X203784398Y-87069342D01*
X203784398Y-87069342D02*
X203736779Y-86878866D01*
X203736779Y-86878866D02*
X203736779Y-86640771D01*
X203736779Y-86640771D02*
X203784398Y-86450295D01*
X203784398Y-86450295D02*
X203832017Y-86355057D01*
X203832017Y-86355057D02*
X203879636Y-86307438D01*
X203879636Y-86307438D02*
X203974874Y-86259819D01*
X194736779Y-88869819D02*
X194736779Y-87869819D01*
X194736779Y-87869819D02*
X194974874Y-87869819D01*
X194974874Y-87869819D02*
X195117731Y-87917438D01*
X195117731Y-87917438D02*
X195212969Y-88012676D01*
X195212969Y-88012676D02*
X195260588Y-88107914D01*
X195260588Y-88107914D02*
X195308207Y-88298390D01*
X195308207Y-88298390D02*
X195308207Y-88441247D01*
X195308207Y-88441247D02*
X195260588Y-88631723D01*
X195260588Y-88631723D02*
X195212969Y-88726961D01*
X195212969Y-88726961D02*
X195117731Y-88822200D01*
X195117731Y-88822200D02*
X194974874Y-88869819D01*
X194974874Y-88869819D02*
X194736779Y-88869819D01*
X196165350Y-88869819D02*
X196165350Y-88346009D01*
X196165350Y-88346009D02*
X196117731Y-88250771D01*
X196117731Y-88250771D02*
X196022493Y-88203152D01*
X196022493Y-88203152D02*
X195832017Y-88203152D01*
X195832017Y-88203152D02*
X195736779Y-88250771D01*
X196165350Y-88822200D02*
X196070112Y-88869819D01*
X196070112Y-88869819D02*
X195832017Y-88869819D01*
X195832017Y-88869819D02*
X195736779Y-88822200D01*
X195736779Y-88822200D02*
X195689160Y-88726961D01*
X195689160Y-88726961D02*
X195689160Y-88631723D01*
X195689160Y-88631723D02*
X195736779Y-88536485D01*
X195736779Y-88536485D02*
X195832017Y-88488866D01*
X195832017Y-88488866D02*
X196070112Y-88488866D01*
X196070112Y-88488866D02*
X196165350Y-88441247D01*
X196498684Y-88203152D02*
X196879636Y-88203152D01*
X196641541Y-87869819D02*
X196641541Y-88726961D01*
X196641541Y-88726961D02*
X196689160Y-88822200D01*
X196689160Y-88822200D02*
X196784398Y-88869819D01*
X196784398Y-88869819D02*
X196879636Y-88869819D01*
X197593922Y-88822200D02*
X197498684Y-88869819D01*
X197498684Y-88869819D02*
X197308208Y-88869819D01*
X197308208Y-88869819D02*
X197212970Y-88822200D01*
X197212970Y-88822200D02*
X197165351Y-88726961D01*
X197165351Y-88726961D02*
X197165351Y-88346009D01*
X197165351Y-88346009D02*
X197212970Y-88250771D01*
X197212970Y-88250771D02*
X197308208Y-88203152D01*
X197308208Y-88203152D02*
X197498684Y-88203152D01*
X197498684Y-88203152D02*
X197593922Y-88250771D01*
X197593922Y-88250771D02*
X197641541Y-88346009D01*
X197641541Y-88346009D02*
X197641541Y-88441247D01*
X197641541Y-88441247D02*
X197165351Y-88536485D01*
X198070113Y-88774580D02*
X198117732Y-88822200D01*
X198117732Y-88822200D02*
X198070113Y-88869819D01*
X198070113Y-88869819D02*
X198022494Y-88822200D01*
X198022494Y-88822200D02*
X198070113Y-88774580D01*
X198070113Y-88774580D02*
X198070113Y-88869819D01*
X198070113Y-88250771D02*
X198117732Y-88298390D01*
X198117732Y-88298390D02*
X198070113Y-88346009D01*
X198070113Y-88346009D02*
X198022494Y-88298390D01*
X198022494Y-88298390D02*
X198070113Y-88250771D01*
X198070113Y-88250771D02*
X198070113Y-88346009D01*
X199832017Y-88869819D02*
X199260589Y-88869819D01*
X199546303Y-88869819D02*
X199546303Y-87869819D01*
X199546303Y-87869819D02*
X199451065Y-88012676D01*
X199451065Y-88012676D02*
X199355827Y-88107914D01*
X199355827Y-88107914D02*
X199260589Y-88155533D01*
X200689160Y-87869819D02*
X200498684Y-87869819D01*
X200498684Y-87869819D02*
X200403446Y-87917438D01*
X200403446Y-87917438D02*
X200355827Y-87965057D01*
X200355827Y-87965057D02*
X200260589Y-88107914D01*
X200260589Y-88107914D02*
X200212970Y-88298390D01*
X200212970Y-88298390D02*
X200212970Y-88679342D01*
X200212970Y-88679342D02*
X200260589Y-88774580D01*
X200260589Y-88774580D02*
X200308208Y-88822200D01*
X200308208Y-88822200D02*
X200403446Y-88869819D01*
X200403446Y-88869819D02*
X200593922Y-88869819D01*
X200593922Y-88869819D02*
X200689160Y-88822200D01*
X200689160Y-88822200D02*
X200736779Y-88774580D01*
X200736779Y-88774580D02*
X200784398Y-88679342D01*
X200784398Y-88679342D02*
X200784398Y-88441247D01*
X200784398Y-88441247D02*
X200736779Y-88346009D01*
X200736779Y-88346009D02*
X200689160Y-88298390D01*
X200689160Y-88298390D02*
X200593922Y-88250771D01*
X200593922Y-88250771D02*
X200403446Y-88250771D01*
X200403446Y-88250771D02*
X200308208Y-88298390D01*
X200308208Y-88298390D02*
X200260589Y-88346009D01*
X200260589Y-88346009D02*
X200212970Y-88441247D01*
X201927255Y-87822200D02*
X201070113Y-89107914D01*
X202451065Y-87869819D02*
X202546303Y-87869819D01*
X202546303Y-87869819D02*
X202641541Y-87917438D01*
X202641541Y-87917438D02*
X202689160Y-87965057D01*
X202689160Y-87965057D02*
X202736779Y-88060295D01*
X202736779Y-88060295D02*
X202784398Y-88250771D01*
X202784398Y-88250771D02*
X202784398Y-88488866D01*
X202784398Y-88488866D02*
X202736779Y-88679342D01*
X202736779Y-88679342D02*
X202689160Y-88774580D01*
X202689160Y-88774580D02*
X202641541Y-88822200D01*
X202641541Y-88822200D02*
X202546303Y-88869819D01*
X202546303Y-88869819D02*
X202451065Y-88869819D01*
X202451065Y-88869819D02*
X202355827Y-88822200D01*
X202355827Y-88822200D02*
X202308208Y-88774580D01*
X202308208Y-88774580D02*
X202260589Y-88679342D01*
X202260589Y-88679342D02*
X202212970Y-88488866D01*
X202212970Y-88488866D02*
X202212970Y-88250771D01*
X202212970Y-88250771D02*
X202260589Y-88060295D01*
X202260589Y-88060295D02*
X202308208Y-87965057D01*
X202308208Y-87965057D02*
X202355827Y-87917438D01*
X202355827Y-87917438D02*
X202451065Y-87869819D01*
X203165351Y-87965057D02*
X203212970Y-87917438D01*
X203212970Y-87917438D02*
X203308208Y-87869819D01*
X203308208Y-87869819D02*
X203546303Y-87869819D01*
X203546303Y-87869819D02*
X203641541Y-87917438D01*
X203641541Y-87917438D02*
X203689160Y-87965057D01*
X203689160Y-87965057D02*
X203736779Y-88060295D01*
X203736779Y-88060295D02*
X203736779Y-88155533D01*
X203736779Y-88155533D02*
X203689160Y-88298390D01*
X203689160Y-88298390D02*
X203117732Y-88869819D01*
X203117732Y-88869819D02*
X203736779Y-88869819D01*
X204879636Y-87822200D02*
X204022494Y-89107914D01*
X205165351Y-87965057D02*
X205212970Y-87917438D01*
X205212970Y-87917438D02*
X205308208Y-87869819D01*
X205308208Y-87869819D02*
X205546303Y-87869819D01*
X205546303Y-87869819D02*
X205641541Y-87917438D01*
X205641541Y-87917438D02*
X205689160Y-87965057D01*
X205689160Y-87965057D02*
X205736779Y-88060295D01*
X205736779Y-88060295D02*
X205736779Y-88155533D01*
X205736779Y-88155533D02*
X205689160Y-88298390D01*
X205689160Y-88298390D02*
X205117732Y-88869819D01*
X205117732Y-88869819D02*
X205736779Y-88869819D01*
X206355827Y-87869819D02*
X206451065Y-87869819D01*
X206451065Y-87869819D02*
X206546303Y-87917438D01*
X206546303Y-87917438D02*
X206593922Y-87965057D01*
X206593922Y-87965057D02*
X206641541Y-88060295D01*
X206641541Y-88060295D02*
X206689160Y-88250771D01*
X206689160Y-88250771D02*
X206689160Y-88488866D01*
X206689160Y-88488866D02*
X206641541Y-88679342D01*
X206641541Y-88679342D02*
X206593922Y-88774580D01*
X206593922Y-88774580D02*
X206546303Y-88822200D01*
X206546303Y-88822200D02*
X206451065Y-88869819D01*
X206451065Y-88869819D02*
X206355827Y-88869819D01*
X206355827Y-88869819D02*
X206260589Y-88822200D01*
X206260589Y-88822200D02*
X206212970Y-88774580D01*
X206212970Y-88774580D02*
X206165351Y-88679342D01*
X206165351Y-88679342D02*
X206117732Y-88488866D01*
X206117732Y-88488866D02*
X206117732Y-88250771D01*
X206117732Y-88250771D02*
X206165351Y-88060295D01*
X206165351Y-88060295D02*
X206212970Y-87965057D01*
X206212970Y-87965057D02*
X206260589Y-87917438D01*
X206260589Y-87917438D02*
X206355827Y-87869819D01*
X207070113Y-87965057D02*
X207117732Y-87917438D01*
X207117732Y-87917438D02*
X207212970Y-87869819D01*
X207212970Y-87869819D02*
X207451065Y-87869819D01*
X207451065Y-87869819D02*
X207546303Y-87917438D01*
X207546303Y-87917438D02*
X207593922Y-87965057D01*
X207593922Y-87965057D02*
X207641541Y-88060295D01*
X207641541Y-88060295D02*
X207641541Y-88155533D01*
X207641541Y-88155533D02*
X207593922Y-88298390D01*
X207593922Y-88298390D02*
X207022494Y-88869819D01*
X207022494Y-88869819D02*
X207641541Y-88869819D01*
X208498684Y-88203152D02*
X208498684Y-88869819D01*
X208260589Y-87822200D02*
X208022494Y-88536485D01*
X208022494Y-88536485D02*
X208641541Y-88536485D01*
D11*
X161721185Y-101645369D02*
X161649757Y-101573941D01*
X161649757Y-101573941D02*
X161578328Y-101431084D01*
X161578328Y-101431084D02*
X161578328Y-101073941D01*
X161578328Y-101073941D02*
X161649757Y-100931084D01*
X161649757Y-100931084D02*
X161721185Y-100859655D01*
X161721185Y-100859655D02*
X161864042Y-100788226D01*
X161864042Y-100788226D02*
X162006900Y-100788226D01*
X162006900Y-100788226D02*
X162221185Y-100859655D01*
X162221185Y-100859655D02*
X163078328Y-101716798D01*
X163078328Y-101716798D02*
X163078328Y-100788226D01*
X161578328Y-100288227D02*
X161578328Y-99288227D01*
X161578328Y-99288227D02*
X163078328Y-99931084D01*
X162935471Y-98716799D02*
X163006900Y-98645370D01*
X163006900Y-98645370D02*
X163078328Y-98716799D01*
X163078328Y-98716799D02*
X163006900Y-98788227D01*
X163006900Y-98788227D02*
X162935471Y-98716799D01*
X162935471Y-98716799D02*
X163078328Y-98716799D01*
X161578328Y-97288227D02*
X161578328Y-98002513D01*
X161578328Y-98002513D02*
X162292614Y-98073941D01*
X162292614Y-98073941D02*
X162221185Y-98002513D01*
X162221185Y-98002513D02*
X162149757Y-97859656D01*
X162149757Y-97859656D02*
X162149757Y-97502513D01*
X162149757Y-97502513D02*
X162221185Y-97359656D01*
X162221185Y-97359656D02*
X162292614Y-97288227D01*
X162292614Y-97288227D02*
X162435471Y-97216798D01*
X162435471Y-97216798D02*
X162792614Y-97216798D01*
X162792614Y-97216798D02*
X162935471Y-97288227D01*
X162935471Y-97288227D02*
X163006900Y-97359656D01*
X163006900Y-97359656D02*
X163078328Y-97502513D01*
X163078328Y-97502513D02*
X163078328Y-97859656D01*
X163078328Y-97859656D02*
X163006900Y-98002513D01*
X163006900Y-98002513D02*
X162935471Y-98073941D01*
X161578328Y-96288227D02*
X161578328Y-96145370D01*
X161578328Y-96145370D02*
X161649757Y-96002513D01*
X161649757Y-96002513D02*
X161721185Y-95931085D01*
X161721185Y-95931085D02*
X161864042Y-95859656D01*
X161864042Y-95859656D02*
X162149757Y-95788227D01*
X162149757Y-95788227D02*
X162506900Y-95788227D01*
X162506900Y-95788227D02*
X162792614Y-95859656D01*
X162792614Y-95859656D02*
X162935471Y-95931085D01*
X162935471Y-95931085D02*
X163006900Y-96002513D01*
X163006900Y-96002513D02*
X163078328Y-96145370D01*
X163078328Y-96145370D02*
X163078328Y-96288227D01*
X163078328Y-96288227D02*
X163006900Y-96431085D01*
X163006900Y-96431085D02*
X162935471Y-96502513D01*
X162935471Y-96502513D02*
X162792614Y-96573942D01*
X162792614Y-96573942D02*
X162506900Y-96645370D01*
X162506900Y-96645370D02*
X162149757Y-96645370D01*
X162149757Y-96645370D02*
X161864042Y-96573942D01*
X161864042Y-96573942D02*
X161721185Y-96502513D01*
X161721185Y-96502513D02*
X161649757Y-96431085D01*
X161649757Y-96431085D02*
X161578328Y-96288227D01*
X161578328Y-94859656D02*
X161578328Y-94716799D01*
X161578328Y-94716799D02*
X161649757Y-94573942D01*
X161649757Y-94573942D02*
X161721185Y-94502514D01*
X161721185Y-94502514D02*
X161864042Y-94431085D01*
X161864042Y-94431085D02*
X162149757Y-94359656D01*
X162149757Y-94359656D02*
X162506900Y-94359656D01*
X162506900Y-94359656D02*
X162792614Y-94431085D01*
X162792614Y-94431085D02*
X162935471Y-94502514D01*
X162935471Y-94502514D02*
X163006900Y-94573942D01*
X163006900Y-94573942D02*
X163078328Y-94716799D01*
X163078328Y-94716799D02*
X163078328Y-94859656D01*
X163078328Y-94859656D02*
X163006900Y-95002514D01*
X163006900Y-95002514D02*
X162935471Y-95073942D01*
X162935471Y-95073942D02*
X162792614Y-95145371D01*
X162792614Y-95145371D02*
X162506900Y-95216799D01*
X162506900Y-95216799D02*
X162149757Y-95216799D01*
X162149757Y-95216799D02*
X161864042Y-95145371D01*
X161864042Y-95145371D02*
X161721185Y-95073942D01*
X161721185Y-95073942D02*
X161649757Y-95002514D01*
X161649757Y-95002514D02*
X161578328Y-94859656D01*
X161578328Y-93431085D02*
X161578328Y-93288228D01*
X161578328Y-93288228D02*
X161649757Y-93145371D01*
X161649757Y-93145371D02*
X161721185Y-93073943D01*
X161721185Y-93073943D02*
X161864042Y-93002514D01*
X161864042Y-93002514D02*
X162149757Y-92931085D01*
X162149757Y-92931085D02*
X162506900Y-92931085D01*
X162506900Y-92931085D02*
X162792614Y-93002514D01*
X162792614Y-93002514D02*
X162935471Y-93073943D01*
X162935471Y-93073943D02*
X163006900Y-93145371D01*
X163006900Y-93145371D02*
X163078328Y-93288228D01*
X163078328Y-93288228D02*
X163078328Y-93431085D01*
X163078328Y-93431085D02*
X163006900Y-93573943D01*
X163006900Y-93573943D02*
X162935471Y-93645371D01*
X162935471Y-93645371D02*
X162792614Y-93716800D01*
X162792614Y-93716800D02*
X162506900Y-93788228D01*
X162506900Y-93788228D02*
X162149757Y-93788228D01*
X162149757Y-93788228D02*
X161864042Y-93716800D01*
X161864042Y-93716800D02*
X161721185Y-93645371D01*
X161721185Y-93645371D02*
X161649757Y-93573943D01*
X161649757Y-93573943D02*
X161578328Y-93431085D01*
X163078328Y-91145372D02*
X162078328Y-91145372D01*
X162221185Y-91145372D02*
X162149757Y-91073943D01*
X162149757Y-91073943D02*
X162078328Y-90931086D01*
X162078328Y-90931086D02*
X162078328Y-90716800D01*
X162078328Y-90716800D02*
X162149757Y-90573943D01*
X162149757Y-90573943D02*
X162292614Y-90502515D01*
X162292614Y-90502515D02*
X163078328Y-90502515D01*
X162292614Y-90502515D02*
X162149757Y-90431086D01*
X162149757Y-90431086D02*
X162078328Y-90288229D01*
X162078328Y-90288229D02*
X162078328Y-90073943D01*
X162078328Y-90073943D02*
X162149757Y-89931086D01*
X162149757Y-89931086D02*
X162292614Y-89859657D01*
X162292614Y-89859657D02*
X163078328Y-89859657D01*
X163078328Y-89145372D02*
X162078328Y-89145372D01*
X162221185Y-89145372D02*
X162149757Y-89073943D01*
X162149757Y-89073943D02*
X162078328Y-88931086D01*
X162078328Y-88931086D02*
X162078328Y-88716800D01*
X162078328Y-88716800D02*
X162149757Y-88573943D01*
X162149757Y-88573943D02*
X162292614Y-88502515D01*
X162292614Y-88502515D02*
X163078328Y-88502515D01*
X162292614Y-88502515D02*
X162149757Y-88431086D01*
X162149757Y-88431086D02*
X162078328Y-88288229D01*
X162078328Y-88288229D02*
X162078328Y-88073943D01*
X162078328Y-88073943D02*
X162149757Y-87931086D01*
X162149757Y-87931086D02*
X162292614Y-87859657D01*
X162292614Y-87859657D02*
X163078328Y-87859657D01*
D12*
X158727600Y-80966800D02*
X164786420Y-80966800D01*
X158727600Y-108466800D02*
X164786420Y-108466800D01*
X164200000Y-80966800D02*
X164200000Y-108466800D01*
X164200000Y-80966800D02*
X164200000Y-108466800D01*
X164200000Y-80966800D02*
X164786421Y-82093304D01*
X164200000Y-80966800D02*
X163613579Y-82093304D01*
X164200000Y-108466800D02*
X163613579Y-107340296D01*
X164200000Y-108466800D02*
X164786421Y-107340296D01*
D11*
X140549030Y-76021185D02*
X140620458Y-75949757D01*
X140620458Y-75949757D02*
X140763316Y-75878328D01*
X140763316Y-75878328D02*
X141120458Y-75878328D01*
X141120458Y-75878328D02*
X141263316Y-75949757D01*
X141263316Y-75949757D02*
X141334744Y-76021185D01*
X141334744Y-76021185D02*
X141406173Y-76164042D01*
X141406173Y-76164042D02*
X141406173Y-76306900D01*
X141406173Y-76306900D02*
X141334744Y-76521185D01*
X141334744Y-76521185D02*
X140477601Y-77378328D01*
X140477601Y-77378328D02*
X141406173Y-77378328D01*
X142834744Y-77378328D02*
X141977601Y-77378328D01*
X142406172Y-77378328D02*
X142406172Y-75878328D01*
X142406172Y-75878328D02*
X142263315Y-76092614D01*
X142263315Y-76092614D02*
X142120458Y-76235471D01*
X142120458Y-76235471D02*
X141977601Y-76306900D01*
X143477600Y-77235471D02*
X143549029Y-77306900D01*
X143549029Y-77306900D02*
X143477600Y-77378328D01*
X143477600Y-77378328D02*
X143406172Y-77306900D01*
X143406172Y-77306900D02*
X143477600Y-77235471D01*
X143477600Y-77235471D02*
X143477600Y-77378328D01*
X144906172Y-75878328D02*
X144191886Y-75878328D01*
X144191886Y-75878328D02*
X144120458Y-76592614D01*
X144120458Y-76592614D02*
X144191886Y-76521185D01*
X144191886Y-76521185D02*
X144334744Y-76449757D01*
X144334744Y-76449757D02*
X144691886Y-76449757D01*
X144691886Y-76449757D02*
X144834744Y-76521185D01*
X144834744Y-76521185D02*
X144906172Y-76592614D01*
X144906172Y-76592614D02*
X144977601Y-76735471D01*
X144977601Y-76735471D02*
X144977601Y-77092614D01*
X144977601Y-77092614D02*
X144906172Y-77235471D01*
X144906172Y-77235471D02*
X144834744Y-77306900D01*
X144834744Y-77306900D02*
X144691886Y-77378328D01*
X144691886Y-77378328D02*
X144334744Y-77378328D01*
X144334744Y-77378328D02*
X144191886Y-77306900D01*
X144191886Y-77306900D02*
X144120458Y-77235471D01*
X145906172Y-75878328D02*
X146049029Y-75878328D01*
X146049029Y-75878328D02*
X146191886Y-75949757D01*
X146191886Y-75949757D02*
X146263315Y-76021185D01*
X146263315Y-76021185D02*
X146334743Y-76164042D01*
X146334743Y-76164042D02*
X146406172Y-76449757D01*
X146406172Y-76449757D02*
X146406172Y-76806900D01*
X146406172Y-76806900D02*
X146334743Y-77092614D01*
X146334743Y-77092614D02*
X146263315Y-77235471D01*
X146263315Y-77235471D02*
X146191886Y-77306900D01*
X146191886Y-77306900D02*
X146049029Y-77378328D01*
X146049029Y-77378328D02*
X145906172Y-77378328D01*
X145906172Y-77378328D02*
X145763315Y-77306900D01*
X145763315Y-77306900D02*
X145691886Y-77235471D01*
X145691886Y-77235471D02*
X145620457Y-77092614D01*
X145620457Y-77092614D02*
X145549029Y-76806900D01*
X145549029Y-76806900D02*
X145549029Y-76449757D01*
X145549029Y-76449757D02*
X145620457Y-76164042D01*
X145620457Y-76164042D02*
X145691886Y-76021185D01*
X145691886Y-76021185D02*
X145763315Y-75949757D01*
X145763315Y-75949757D02*
X145906172Y-75878328D01*
X147334743Y-75878328D02*
X147477600Y-75878328D01*
X147477600Y-75878328D02*
X147620457Y-75949757D01*
X147620457Y-75949757D02*
X147691886Y-76021185D01*
X147691886Y-76021185D02*
X147763314Y-76164042D01*
X147763314Y-76164042D02*
X147834743Y-76449757D01*
X147834743Y-76449757D02*
X147834743Y-76806900D01*
X147834743Y-76806900D02*
X147763314Y-77092614D01*
X147763314Y-77092614D02*
X147691886Y-77235471D01*
X147691886Y-77235471D02*
X147620457Y-77306900D01*
X147620457Y-77306900D02*
X147477600Y-77378328D01*
X147477600Y-77378328D02*
X147334743Y-77378328D01*
X147334743Y-77378328D02*
X147191886Y-77306900D01*
X147191886Y-77306900D02*
X147120457Y-77235471D01*
X147120457Y-77235471D02*
X147049028Y-77092614D01*
X147049028Y-77092614D02*
X146977600Y-76806900D01*
X146977600Y-76806900D02*
X146977600Y-76449757D01*
X146977600Y-76449757D02*
X147049028Y-76164042D01*
X147049028Y-76164042D02*
X147120457Y-76021185D01*
X147120457Y-76021185D02*
X147191886Y-75949757D01*
X147191886Y-75949757D02*
X147334743Y-75878328D01*
X148763314Y-75878328D02*
X148906171Y-75878328D01*
X148906171Y-75878328D02*
X149049028Y-75949757D01*
X149049028Y-75949757D02*
X149120457Y-76021185D01*
X149120457Y-76021185D02*
X149191885Y-76164042D01*
X149191885Y-76164042D02*
X149263314Y-76449757D01*
X149263314Y-76449757D02*
X149263314Y-76806900D01*
X149263314Y-76806900D02*
X149191885Y-77092614D01*
X149191885Y-77092614D02*
X149120457Y-77235471D01*
X149120457Y-77235471D02*
X149049028Y-77306900D01*
X149049028Y-77306900D02*
X148906171Y-77378328D01*
X148906171Y-77378328D02*
X148763314Y-77378328D01*
X148763314Y-77378328D02*
X148620457Y-77306900D01*
X148620457Y-77306900D02*
X148549028Y-77235471D01*
X148549028Y-77235471D02*
X148477599Y-77092614D01*
X148477599Y-77092614D02*
X148406171Y-76806900D01*
X148406171Y-76806900D02*
X148406171Y-76449757D01*
X148406171Y-76449757D02*
X148477599Y-76164042D01*
X148477599Y-76164042D02*
X148549028Y-76021185D01*
X148549028Y-76021185D02*
X148620457Y-75949757D01*
X148620457Y-75949757D02*
X148763314Y-75878328D01*
X151049027Y-77378328D02*
X151049027Y-76378328D01*
X151049027Y-76521185D02*
X151120456Y-76449757D01*
X151120456Y-76449757D02*
X151263313Y-76378328D01*
X151263313Y-76378328D02*
X151477599Y-76378328D01*
X151477599Y-76378328D02*
X151620456Y-76449757D01*
X151620456Y-76449757D02*
X151691885Y-76592614D01*
X151691885Y-76592614D02*
X151691885Y-77378328D01*
X151691885Y-76592614D02*
X151763313Y-76449757D01*
X151763313Y-76449757D02*
X151906170Y-76378328D01*
X151906170Y-76378328D02*
X152120456Y-76378328D01*
X152120456Y-76378328D02*
X152263313Y-76449757D01*
X152263313Y-76449757D02*
X152334742Y-76592614D01*
X152334742Y-76592614D02*
X152334742Y-77378328D01*
X153049027Y-77378328D02*
X153049027Y-76378328D01*
X153049027Y-76521185D02*
X153120456Y-76449757D01*
X153120456Y-76449757D02*
X153263313Y-76378328D01*
X153263313Y-76378328D02*
X153477599Y-76378328D01*
X153477599Y-76378328D02*
X153620456Y-76449757D01*
X153620456Y-76449757D02*
X153691885Y-76592614D01*
X153691885Y-76592614D02*
X153691885Y-77378328D01*
X153691885Y-76592614D02*
X153763313Y-76449757D01*
X153763313Y-76449757D02*
X153906170Y-76378328D01*
X153906170Y-76378328D02*
X154120456Y-76378328D01*
X154120456Y-76378328D02*
X154263313Y-76449757D01*
X154263313Y-76449757D02*
X154334742Y-76592614D01*
X154334742Y-76592614D02*
X154334742Y-77378328D01*
D12*
X136727600Y-80466800D02*
X136727600Y-77913580D01*
X158227600Y-80466800D02*
X158227600Y-77913580D01*
X136727600Y-78500000D02*
X158227600Y-78500000D01*
X136727600Y-78500000D02*
X158227600Y-78500000D01*
X136727600Y-78500000D02*
X137854104Y-77913579D01*
X136727600Y-78500000D02*
X137854104Y-79086421D01*
X158227600Y-78500000D02*
X157101096Y-79086421D01*
X158227600Y-78500000D02*
X157101096Y-77913579D01*
M02*
