%TF.GenerationSoftware,KiCad,Pcbnew,7.0.10*%
%TF.CreationDate,2024-10-22T16:17:16+01:00*%
%TF.ProjectId,RL78I1C_PMOD_PROG_ADAPTOR_NON_ISO,524c3738-4931-4435-9f50-4d4f445f5052,0*%
%TF.SameCoordinates,Original*%
%TF.FileFunction,Copper,L2,Bot*%
%TF.FilePolarity,Positive*%
%FSLAX46Y46*%
G04 Gerber Fmt 4.6, Leading zero omitted, Abs format (unit mm)*
G04 Created by KiCad (PCBNEW 7.0.10) date 2024-10-22 16:17:16*
%MOMM*%
%LPD*%
G01*
G04 APERTURE LIST*
%ADD10C,0.150000*%
%TA.AperFunction,NonConductor*%
%ADD11C,0.150000*%
%TD*%
%TA.AperFunction,ComponentPad*%
%ADD12R,1.700000X1.700000*%
%TD*%
%TA.AperFunction,ComponentPad*%
%ADD13O,1.700000X1.700000*%
%TD*%
G04 APERTURE END LIST*
D10*
D11*
X179108207Y-99474580D02*
X179060588Y-99522200D01*
X179060588Y-99522200D02*
X178917731Y-99569819D01*
X178917731Y-99569819D02*
X178822493Y-99569819D01*
X178822493Y-99569819D02*
X178679636Y-99522200D01*
X178679636Y-99522200D02*
X178584398Y-99426961D01*
X178584398Y-99426961D02*
X178536779Y-99331723D01*
X178536779Y-99331723D02*
X178489160Y-99141247D01*
X178489160Y-99141247D02*
X178489160Y-98998390D01*
X178489160Y-98998390D02*
X178536779Y-98807914D01*
X178536779Y-98807914D02*
X178584398Y-98712676D01*
X178584398Y-98712676D02*
X178679636Y-98617438D01*
X178679636Y-98617438D02*
X178822493Y-98569819D01*
X178822493Y-98569819D02*
X178917731Y-98569819D01*
X178917731Y-98569819D02*
X179060588Y-98617438D01*
X179060588Y-98617438D02*
X179108207Y-98665057D01*
X179679636Y-99569819D02*
X179584398Y-99522200D01*
X179584398Y-99522200D02*
X179536779Y-99474580D01*
X179536779Y-99474580D02*
X179489160Y-99379342D01*
X179489160Y-99379342D02*
X179489160Y-99093628D01*
X179489160Y-99093628D02*
X179536779Y-98998390D01*
X179536779Y-98998390D02*
X179584398Y-98950771D01*
X179584398Y-98950771D02*
X179679636Y-98903152D01*
X179679636Y-98903152D02*
X179822493Y-98903152D01*
X179822493Y-98903152D02*
X179917731Y-98950771D01*
X179917731Y-98950771D02*
X179965350Y-98998390D01*
X179965350Y-98998390D02*
X180012969Y-99093628D01*
X180012969Y-99093628D02*
X180012969Y-99379342D01*
X180012969Y-99379342D02*
X179965350Y-99474580D01*
X179965350Y-99474580D02*
X179917731Y-99522200D01*
X179917731Y-99522200D02*
X179822493Y-99569819D01*
X179822493Y-99569819D02*
X179679636Y-99569819D01*
X180441541Y-98903152D02*
X180441541Y-99903152D01*
X180441541Y-98950771D02*
X180536779Y-98903152D01*
X180536779Y-98903152D02*
X180727255Y-98903152D01*
X180727255Y-98903152D02*
X180822493Y-98950771D01*
X180822493Y-98950771D02*
X180870112Y-98998390D01*
X180870112Y-98998390D02*
X180917731Y-99093628D01*
X180917731Y-99093628D02*
X180917731Y-99379342D01*
X180917731Y-99379342D02*
X180870112Y-99474580D01*
X180870112Y-99474580D02*
X180822493Y-99522200D01*
X180822493Y-99522200D02*
X180727255Y-99569819D01*
X180727255Y-99569819D02*
X180536779Y-99569819D01*
X180536779Y-99569819D02*
X180441541Y-99522200D01*
X181346303Y-98903152D02*
X181346303Y-99903152D01*
X181346303Y-98950771D02*
X181441541Y-98903152D01*
X181441541Y-98903152D02*
X181632017Y-98903152D01*
X181632017Y-98903152D02*
X181727255Y-98950771D01*
X181727255Y-98950771D02*
X181774874Y-98998390D01*
X181774874Y-98998390D02*
X181822493Y-99093628D01*
X181822493Y-99093628D02*
X181822493Y-99379342D01*
X181822493Y-99379342D02*
X181774874Y-99474580D01*
X181774874Y-99474580D02*
X181727255Y-99522200D01*
X181727255Y-99522200D02*
X181632017Y-99569819D01*
X181632017Y-99569819D02*
X181441541Y-99569819D01*
X181441541Y-99569819D02*
X181346303Y-99522200D01*
X182632017Y-99522200D02*
X182536779Y-99569819D01*
X182536779Y-99569819D02*
X182346303Y-99569819D01*
X182346303Y-99569819D02*
X182251065Y-99522200D01*
X182251065Y-99522200D02*
X182203446Y-99426961D01*
X182203446Y-99426961D02*
X182203446Y-99046009D01*
X182203446Y-99046009D02*
X182251065Y-98950771D01*
X182251065Y-98950771D02*
X182346303Y-98903152D01*
X182346303Y-98903152D02*
X182536779Y-98903152D01*
X182536779Y-98903152D02*
X182632017Y-98950771D01*
X182632017Y-98950771D02*
X182679636Y-99046009D01*
X182679636Y-99046009D02*
X182679636Y-99141247D01*
X182679636Y-99141247D02*
X182203446Y-99236485D01*
X183108208Y-99569819D02*
X183108208Y-98903152D01*
X183108208Y-99093628D02*
X183155827Y-98998390D01*
X183155827Y-98998390D02*
X183203446Y-98950771D01*
X183203446Y-98950771D02*
X183298684Y-98903152D01*
X183298684Y-98903152D02*
X183393922Y-98903152D01*
D12*
%TO.P,J1,1,Pin_1*%
%TO.N,unconnected-(J1-Pin_1-Pad1)*%
X143270400Y-101767200D03*
D13*
%TO.P,J1,2,Pin_2*%
%TO.N,GND*%
X140730400Y-101767200D03*
%TO.P,J1,3,Pin_3*%
%TO.N,unconnected-(J1-Pin_3-Pad3)*%
X143270400Y-99227200D03*
%TO.P,J1,4,Pin_4*%
%TO.N,Net-(J1-Pin_4)*%
X140730400Y-99227200D03*
%TO.P,J1,5,Pin_5*%
%TO.N,/TOOL0*%
X143270400Y-96687200D03*
%TO.P,J1,6,Pin_6*%
%TO.N,/~{RESET_IN}*%
X140730400Y-96687200D03*
%TO.P,J1,7,Pin_7*%
%TO.N,unconnected-(J1-Pin_7-Pad7)*%
X143270400Y-94147200D03*
%TO.P,J1,8,Pin_8*%
%TO.N,VCC*%
X140730400Y-94147200D03*
%TO.P,J1,9,Pin_9*%
X143270400Y-91607200D03*
%TO.P,J1,10,Pin_10*%
%TO.N,/~{RESET_OUT}*%
X140730400Y-91607200D03*
%TO.P,J1,11,Pin_11*%
%TO.N,unconnected-(J1-Pin_11-Pad11)*%
X143270400Y-89067200D03*
%TO.P,J1,12,Pin_12*%
%TO.N,GND*%
X140730400Y-89067200D03*
%TO.P,J1,13,Pin_13*%
%TO.N,/~{RESET_OUT}*%
X143270400Y-86527200D03*
%TO.P,J1,14,Pin_14*%
%TO.N,GND*%
X140730400Y-86527200D03*
%TD*%
D12*
%TO.P,J2,1,Pin_1*%
%TO.N,VCC*%
X155700000Y-89325000D03*
D13*
%TO.P,J2,2,Pin_2*%
%TO.N,/~{RESET_OUT}*%
X155700000Y-91865000D03*
%TO.P,J2,3,Pin_3*%
%TO.N,/~{RESET_IN}*%
X155700000Y-94405000D03*
%TO.P,J2,4,Pin_4*%
%TO.N,/TOOL0*%
X155700000Y-96945000D03*
%TO.P,J2,5,Pin_5*%
%TO.N,GND*%
X155700000Y-99485000D03*
%TD*%
%TA.AperFunction,Conductor*%
%TO.N,GND*%
G36*
X140980400Y-88631698D02*
G01*
X140872715Y-88582520D01*
X140766163Y-88567200D01*
X140694637Y-88567200D01*
X140588085Y-88582520D01*
X140480400Y-88631698D01*
X140480400Y-86962701D01*
X140588085Y-87011880D01*
X140694637Y-87027200D01*
X140766163Y-87027200D01*
X140872715Y-87011880D01*
X140980400Y-86962701D01*
X140980400Y-88631698D01*
G37*
%TD.AperFunction*%
%TA.AperFunction,Conductor*%
G36*
X157443039Y-84219685D02*
G01*
X157488794Y-84272489D01*
X157500000Y-84324000D01*
X157500000Y-104676000D01*
X157480315Y-104743039D01*
X157427511Y-104788794D01*
X157376000Y-104800000D01*
X138724000Y-104800000D01*
X138656961Y-104780315D01*
X138611206Y-104727511D01*
X138600000Y-104676000D01*
X138600000Y-99227200D01*
X139374741Y-99227200D01*
X139395336Y-99462603D01*
X139395338Y-99462613D01*
X139456494Y-99690855D01*
X139456496Y-99690859D01*
X139456497Y-99690863D01*
X139536404Y-99862223D01*
X139556365Y-99905030D01*
X139556367Y-99905034D01*
X139664681Y-100059721D01*
X139691905Y-100098601D01*
X139858999Y-100265695D01*
X140025839Y-100382518D01*
X140044994Y-100395930D01*
X140088619Y-100450507D01*
X140095813Y-100520005D01*
X140064290Y-100582360D01*
X140044995Y-100599080D01*
X139859322Y-100729090D01*
X139859320Y-100729091D01*
X139692291Y-100896120D01*
X139692286Y-100896126D01*
X139556800Y-101089620D01*
X139556799Y-101089622D01*
X139456970Y-101303707D01*
X139456967Y-101303713D01*
X139399764Y-101517199D01*
X139399764Y-101517200D01*
X140296714Y-101517200D01*
X140270907Y-101557356D01*
X140230400Y-101695311D01*
X140230400Y-101839089D01*
X140270907Y-101977044D01*
X140296714Y-102017200D01*
X139399764Y-102017200D01*
X139456967Y-102230686D01*
X139456970Y-102230692D01*
X139556799Y-102444778D01*
X139692294Y-102638282D01*
X139859317Y-102805305D01*
X140052821Y-102940800D01*
X140266907Y-103040629D01*
X140266916Y-103040633D01*
X140480400Y-103097834D01*
X140480400Y-102202701D01*
X140588085Y-102251880D01*
X140694637Y-102267200D01*
X140766163Y-102267200D01*
X140872715Y-102251880D01*
X140980400Y-102202701D01*
X140980400Y-103097833D01*
X141193883Y-103040633D01*
X141193892Y-103040629D01*
X141407978Y-102940800D01*
X141601478Y-102805308D01*
X141723533Y-102683253D01*
X141784856Y-102649768D01*
X141854548Y-102654752D01*
X141910482Y-102696623D01*
X141927397Y-102727601D01*
X141976602Y-102859528D01*
X141976606Y-102859535D01*
X142062852Y-102974744D01*
X142062855Y-102974747D01*
X142178064Y-103060993D01*
X142178071Y-103060997D01*
X142312917Y-103111291D01*
X142312916Y-103111291D01*
X142319844Y-103112035D01*
X142372527Y-103117700D01*
X144168272Y-103117699D01*
X144227883Y-103111291D01*
X144362731Y-103060996D01*
X144477946Y-102974746D01*
X144564196Y-102859531D01*
X144614491Y-102724683D01*
X144620900Y-102665073D01*
X144620899Y-100869328D01*
X144614491Y-100809717D01*
X144613402Y-100806798D01*
X144564197Y-100674871D01*
X144564193Y-100674864D01*
X144477947Y-100559655D01*
X144477944Y-100559652D01*
X144362735Y-100473406D01*
X144362728Y-100473402D01*
X144231317Y-100424389D01*
X144175383Y-100382518D01*
X144150966Y-100317053D01*
X144165818Y-100248780D01*
X144186963Y-100220532D01*
X144308895Y-100098601D01*
X144444435Y-99905030D01*
X144544303Y-99690863D01*
X144605463Y-99462608D01*
X144626059Y-99227200D01*
X144605463Y-98991792D01*
X144544303Y-98763537D01*
X144444435Y-98549371D01*
X144438825Y-98541358D01*
X144308894Y-98355797D01*
X144141802Y-98188706D01*
X144141796Y-98188701D01*
X143956242Y-98058775D01*
X143912617Y-98004198D01*
X143905423Y-97934700D01*
X143936946Y-97872345D01*
X143956242Y-97855625D01*
X144012258Y-97816402D01*
X144141801Y-97725695D01*
X144308895Y-97558601D01*
X144444435Y-97365030D01*
X144544303Y-97150863D01*
X144599463Y-96945000D01*
X154344341Y-96945000D01*
X154364936Y-97180403D01*
X154364938Y-97180413D01*
X154426094Y-97408655D01*
X154426096Y-97408659D01*
X154426097Y-97408663D01*
X154496015Y-97558602D01*
X154525965Y-97622830D01*
X154525967Y-97622834D01*
X154661501Y-97816395D01*
X154661506Y-97816402D01*
X154828597Y-97983493D01*
X154828603Y-97983498D01*
X155014594Y-98113730D01*
X155058219Y-98168307D01*
X155065413Y-98237805D01*
X155033890Y-98300160D01*
X155014595Y-98316880D01*
X154828922Y-98446890D01*
X154828920Y-98446891D01*
X154661891Y-98613920D01*
X154661886Y-98613926D01*
X154526400Y-98807420D01*
X154526399Y-98807422D01*
X154426570Y-99021507D01*
X154426567Y-99021513D01*
X154369364Y-99234999D01*
X154369364Y-99235000D01*
X155266314Y-99235000D01*
X155240507Y-99275156D01*
X155200000Y-99413111D01*
X155200000Y-99556889D01*
X155240507Y-99694844D01*
X155266314Y-99735000D01*
X154369364Y-99735000D01*
X154426567Y-99948486D01*
X154426570Y-99948492D01*
X154526399Y-100162578D01*
X154661894Y-100356082D01*
X154828917Y-100523105D01*
X155022421Y-100658600D01*
X155236507Y-100758429D01*
X155236516Y-100758433D01*
X155450000Y-100815634D01*
X155450000Y-99920501D01*
X155557685Y-99969680D01*
X155664237Y-99985000D01*
X155735763Y-99985000D01*
X155842315Y-99969680D01*
X155950000Y-99920501D01*
X155950000Y-100815633D01*
X156163483Y-100758433D01*
X156163492Y-100758429D01*
X156377578Y-100658600D01*
X156571082Y-100523105D01*
X156738105Y-100356082D01*
X156873600Y-100162578D01*
X156973429Y-99948492D01*
X156973432Y-99948486D01*
X157030636Y-99735000D01*
X156133686Y-99735000D01*
X156159493Y-99694844D01*
X156200000Y-99556889D01*
X156200000Y-99413111D01*
X156159493Y-99275156D01*
X156133686Y-99235000D01*
X157030636Y-99235000D01*
X157030635Y-99234999D01*
X156973432Y-99021513D01*
X156973429Y-99021507D01*
X156873600Y-98807422D01*
X156873599Y-98807420D01*
X156738113Y-98613926D01*
X156738108Y-98613920D01*
X156571078Y-98446890D01*
X156385405Y-98316879D01*
X156341780Y-98262302D01*
X156334588Y-98192804D01*
X156366110Y-98130449D01*
X156385406Y-98113730D01*
X156471902Y-98053165D01*
X156571401Y-97983495D01*
X156738495Y-97816401D01*
X156874035Y-97622830D01*
X156973903Y-97408663D01*
X157035063Y-97180408D01*
X157055659Y-96945000D01*
X157053699Y-96922603D01*
X157035063Y-96709596D01*
X157035063Y-96709592D01*
X156973903Y-96481337D01*
X156874035Y-96267171D01*
X156843488Y-96223544D01*
X156738494Y-96073597D01*
X156571402Y-95906506D01*
X156571396Y-95906501D01*
X156385842Y-95776575D01*
X156342217Y-95721998D01*
X156335023Y-95652500D01*
X156366546Y-95590145D01*
X156385842Y-95573425D01*
X156471902Y-95513165D01*
X156571401Y-95443495D01*
X156738495Y-95276401D01*
X156874035Y-95082830D01*
X156973903Y-94868663D01*
X157035063Y-94640408D01*
X157055659Y-94405000D01*
X157053699Y-94382603D01*
X157035063Y-94169596D01*
X157035063Y-94169592D01*
X156973903Y-93941337D01*
X156874035Y-93727171D01*
X156843488Y-93683544D01*
X156738494Y-93533597D01*
X156571402Y-93366506D01*
X156571396Y-93366501D01*
X156385842Y-93236575D01*
X156342217Y-93181998D01*
X156335023Y-93112500D01*
X156366546Y-93050145D01*
X156385842Y-93033425D01*
X156471902Y-92973165D01*
X156571401Y-92903495D01*
X156738495Y-92736401D01*
X156874035Y-92542830D01*
X156973903Y-92328663D01*
X157035063Y-92100408D01*
X157055659Y-91865000D01*
X157053699Y-91842603D01*
X157035063Y-91629596D01*
X157035063Y-91629592D01*
X156973903Y-91401337D01*
X156874035Y-91187171D01*
X156843487Y-91143544D01*
X156738496Y-90993600D01*
X156685550Y-90940654D01*
X156616567Y-90871671D01*
X156583084Y-90810351D01*
X156588068Y-90740659D01*
X156629939Y-90684725D01*
X156660915Y-90667810D01*
X156792331Y-90618796D01*
X156907546Y-90532546D01*
X156993796Y-90417331D01*
X157044091Y-90282483D01*
X157050500Y-90222873D01*
X157050499Y-88427128D01*
X157044091Y-88367517D01*
X156993796Y-88232669D01*
X156993795Y-88232668D01*
X156993793Y-88232664D01*
X156907547Y-88117455D01*
X156907544Y-88117452D01*
X156792335Y-88031206D01*
X156792328Y-88031202D01*
X156657482Y-87980908D01*
X156657483Y-87980908D01*
X156597883Y-87974501D01*
X156597881Y-87974500D01*
X156597873Y-87974500D01*
X156597864Y-87974500D01*
X154802129Y-87974500D01*
X154802123Y-87974501D01*
X154742516Y-87980908D01*
X154607671Y-88031202D01*
X154607664Y-88031206D01*
X154492455Y-88117452D01*
X154492452Y-88117455D01*
X154406206Y-88232664D01*
X154406202Y-88232671D01*
X154355908Y-88367517D01*
X154349501Y-88427116D01*
X154349501Y-88427123D01*
X154349500Y-88427135D01*
X154349500Y-90222870D01*
X154349501Y-90222876D01*
X154355908Y-90282483D01*
X154406202Y-90417328D01*
X154406206Y-90417335D01*
X154492452Y-90532544D01*
X154492455Y-90532547D01*
X154607664Y-90618793D01*
X154607671Y-90618797D01*
X154739081Y-90667810D01*
X154795015Y-90709681D01*
X154819432Y-90775145D01*
X154804580Y-90843418D01*
X154783430Y-90871673D01*
X154661503Y-90993600D01*
X154525965Y-91187169D01*
X154525964Y-91187171D01*
X154426098Y-91401335D01*
X154426094Y-91401344D01*
X154364938Y-91629586D01*
X154364936Y-91629596D01*
X154344341Y-91864999D01*
X154344341Y-91865000D01*
X154364936Y-92100403D01*
X154364938Y-92100413D01*
X154426094Y-92328655D01*
X154426096Y-92328659D01*
X154426097Y-92328663D01*
X154496015Y-92478602D01*
X154525965Y-92542830D01*
X154525967Y-92542834D01*
X154661501Y-92736395D01*
X154661506Y-92736402D01*
X154828597Y-92903493D01*
X154828603Y-92903498D01*
X155014158Y-93033425D01*
X155057783Y-93088002D01*
X155064977Y-93157500D01*
X155033454Y-93219855D01*
X155014158Y-93236575D01*
X154828597Y-93366505D01*
X154661505Y-93533597D01*
X154525965Y-93727169D01*
X154525964Y-93727171D01*
X154426098Y-93941335D01*
X154426094Y-93941344D01*
X154364938Y-94169586D01*
X154364936Y-94169596D01*
X154344341Y-94404999D01*
X154344341Y-94405000D01*
X154364936Y-94640403D01*
X154364938Y-94640413D01*
X154426094Y-94868655D01*
X154426096Y-94868659D01*
X154426097Y-94868663D01*
X154496015Y-95018602D01*
X154525965Y-95082830D01*
X154525967Y-95082834D01*
X154661501Y-95276395D01*
X154661506Y-95276402D01*
X154828597Y-95443493D01*
X154828603Y-95443498D01*
X155014158Y-95573425D01*
X155057783Y-95628002D01*
X155064977Y-95697500D01*
X155033454Y-95759855D01*
X155014158Y-95776575D01*
X154828597Y-95906505D01*
X154661505Y-96073597D01*
X154525965Y-96267169D01*
X154525964Y-96267171D01*
X154426098Y-96481335D01*
X154426094Y-96481344D01*
X154364938Y-96709586D01*
X154364936Y-96709596D01*
X154344341Y-96944999D01*
X154344341Y-96945000D01*
X144599463Y-96945000D01*
X144605463Y-96922608D01*
X144626059Y-96687200D01*
X144605463Y-96451792D01*
X144544303Y-96223537D01*
X144444435Y-96009371D01*
X144438825Y-96001358D01*
X144308894Y-95815797D01*
X144141802Y-95648706D01*
X144141796Y-95648701D01*
X143956242Y-95518775D01*
X143912617Y-95464198D01*
X143905423Y-95394700D01*
X143936946Y-95332345D01*
X143956242Y-95315625D01*
X144012258Y-95276402D01*
X144141801Y-95185695D01*
X144308895Y-95018601D01*
X144444435Y-94825030D01*
X144544303Y-94610863D01*
X144605463Y-94382608D01*
X144626059Y-94147200D01*
X144605463Y-93911792D01*
X144544303Y-93683537D01*
X144444435Y-93469371D01*
X144438825Y-93461358D01*
X144308894Y-93275797D01*
X144141802Y-93108706D01*
X144141796Y-93108701D01*
X143956242Y-92978775D01*
X143912617Y-92924198D01*
X143905423Y-92854700D01*
X143936946Y-92792345D01*
X143956242Y-92775625D01*
X144012258Y-92736402D01*
X144141801Y-92645695D01*
X144308895Y-92478601D01*
X144444435Y-92285030D01*
X144544303Y-92070863D01*
X144605463Y-91842608D01*
X144626059Y-91607200D01*
X144605463Y-91371792D01*
X144544303Y-91143537D01*
X144444435Y-90929371D01*
X144438825Y-90921358D01*
X144308894Y-90735797D01*
X144141802Y-90568706D01*
X144141796Y-90568701D01*
X143956242Y-90438775D01*
X143912617Y-90384198D01*
X143905423Y-90314700D01*
X143936946Y-90252345D01*
X143956242Y-90235625D01*
X143978426Y-90220091D01*
X144141801Y-90105695D01*
X144308895Y-89938601D01*
X144444435Y-89745030D01*
X144544303Y-89530863D01*
X144605463Y-89302608D01*
X144626059Y-89067200D01*
X144605463Y-88831792D01*
X144544303Y-88603537D01*
X144444435Y-88389371D01*
X144439131Y-88381795D01*
X144308894Y-88195797D01*
X144141802Y-88028706D01*
X144141796Y-88028701D01*
X143956242Y-87898775D01*
X143912617Y-87844198D01*
X143905423Y-87774700D01*
X143936946Y-87712345D01*
X143956242Y-87695625D01*
X143978426Y-87680091D01*
X144141801Y-87565695D01*
X144308895Y-87398601D01*
X144444435Y-87205030D01*
X144544303Y-86990863D01*
X144605463Y-86762608D01*
X144626059Y-86527200D01*
X144605463Y-86291792D01*
X144544303Y-86063537D01*
X144444435Y-85849371D01*
X144439131Y-85841795D01*
X144308894Y-85655797D01*
X144141802Y-85488706D01*
X144141795Y-85488701D01*
X143948234Y-85353167D01*
X143948230Y-85353165D01*
X143948228Y-85353164D01*
X143734063Y-85253297D01*
X143734059Y-85253296D01*
X143734055Y-85253294D01*
X143505813Y-85192138D01*
X143505803Y-85192136D01*
X143270401Y-85171541D01*
X143270399Y-85171541D01*
X143034996Y-85192136D01*
X143034986Y-85192138D01*
X142806744Y-85253294D01*
X142806735Y-85253298D01*
X142592571Y-85353164D01*
X142592569Y-85353165D01*
X142398997Y-85488705D01*
X142231908Y-85655794D01*
X142101669Y-85841795D01*
X142047092Y-85885419D01*
X141977593Y-85892612D01*
X141915239Y-85861090D01*
X141898519Y-85841794D01*
X141768513Y-85656126D01*
X141768508Y-85656120D01*
X141601482Y-85489094D01*
X141407978Y-85353599D01*
X141193892Y-85253770D01*
X141193886Y-85253767D01*
X140980400Y-85196564D01*
X140980400Y-86091698D01*
X140872715Y-86042520D01*
X140766163Y-86027200D01*
X140694637Y-86027200D01*
X140588085Y-86042520D01*
X140480400Y-86091698D01*
X140480400Y-85196564D01*
X140480399Y-85196564D01*
X140266913Y-85253767D01*
X140266907Y-85253770D01*
X140052822Y-85353599D01*
X140052820Y-85353600D01*
X139859326Y-85489086D01*
X139859320Y-85489091D01*
X139692291Y-85656120D01*
X139692286Y-85656126D01*
X139556800Y-85849620D01*
X139556799Y-85849622D01*
X139456970Y-86063707D01*
X139456967Y-86063713D01*
X139399764Y-86277199D01*
X139399764Y-86277200D01*
X140296714Y-86277200D01*
X140270907Y-86317356D01*
X140230400Y-86455311D01*
X140230400Y-86599089D01*
X140270907Y-86737044D01*
X140296714Y-86777200D01*
X139399764Y-86777200D01*
X139456967Y-86990686D01*
X139456970Y-86990692D01*
X139556799Y-87204778D01*
X139692294Y-87398282D01*
X139859317Y-87565305D01*
X140045431Y-87695625D01*
X140089056Y-87750203D01*
X140096248Y-87819701D01*
X140064726Y-87882056D01*
X140045431Y-87898775D01*
X139859322Y-88029090D01*
X139859320Y-88029091D01*
X139692291Y-88196120D01*
X139692286Y-88196126D01*
X139556800Y-88389620D01*
X139556799Y-88389622D01*
X139456970Y-88603707D01*
X139456967Y-88603713D01*
X139399764Y-88817199D01*
X139399764Y-88817200D01*
X140296714Y-88817200D01*
X140270907Y-88857356D01*
X140230400Y-88995311D01*
X140230400Y-89139089D01*
X140270907Y-89277044D01*
X140296714Y-89317200D01*
X139399764Y-89317200D01*
X139456967Y-89530686D01*
X139456970Y-89530692D01*
X139556799Y-89744778D01*
X139692294Y-89938282D01*
X139859317Y-90105305D01*
X140044995Y-90235319D01*
X140088619Y-90289896D01*
X140095812Y-90359395D01*
X140064290Y-90421749D01*
X140044995Y-90438469D01*
X139858994Y-90568708D01*
X139691905Y-90735797D01*
X139556365Y-90929369D01*
X139556364Y-90929371D01*
X139456498Y-91143535D01*
X139456494Y-91143544D01*
X139395338Y-91371786D01*
X139395336Y-91371796D01*
X139374741Y-91607199D01*
X139374741Y-91607200D01*
X139395336Y-91842603D01*
X139395338Y-91842613D01*
X139456494Y-92070855D01*
X139456496Y-92070859D01*
X139456497Y-92070863D01*
X139536404Y-92242223D01*
X139556365Y-92285030D01*
X139556367Y-92285034D01*
X139664681Y-92439721D01*
X139691901Y-92478596D01*
X139691906Y-92478602D01*
X139858997Y-92645693D01*
X139859003Y-92645698D01*
X140044558Y-92775625D01*
X140088183Y-92830202D01*
X140095377Y-92899700D01*
X140063854Y-92962055D01*
X140044558Y-92978775D01*
X139858997Y-93108705D01*
X139691905Y-93275797D01*
X139556365Y-93469369D01*
X139556364Y-93469371D01*
X139456498Y-93683535D01*
X139456494Y-93683544D01*
X139395338Y-93911786D01*
X139395336Y-93911796D01*
X139374741Y-94147199D01*
X139374741Y-94147200D01*
X139395336Y-94382603D01*
X139395338Y-94382613D01*
X139456494Y-94610855D01*
X139456496Y-94610859D01*
X139456497Y-94610863D01*
X139536404Y-94782223D01*
X139556365Y-94825030D01*
X139556367Y-94825034D01*
X139664681Y-94979721D01*
X139691901Y-95018596D01*
X139691906Y-95018602D01*
X139858997Y-95185693D01*
X139859003Y-95185698D01*
X140044558Y-95315625D01*
X140088183Y-95370202D01*
X140095377Y-95439700D01*
X140063854Y-95502055D01*
X140044558Y-95518775D01*
X139858997Y-95648705D01*
X139691905Y-95815797D01*
X139556365Y-96009369D01*
X139556364Y-96009371D01*
X139456498Y-96223535D01*
X139456494Y-96223544D01*
X139395338Y-96451786D01*
X139395336Y-96451796D01*
X139374741Y-96687199D01*
X139374741Y-96687200D01*
X139395336Y-96922603D01*
X139395338Y-96922613D01*
X139456494Y-97150855D01*
X139456496Y-97150859D01*
X139456497Y-97150863D01*
X139536404Y-97322223D01*
X139556365Y-97365030D01*
X139556367Y-97365034D01*
X139664681Y-97519721D01*
X139691901Y-97558596D01*
X139691906Y-97558602D01*
X139858997Y-97725693D01*
X139859003Y-97725698D01*
X140044558Y-97855625D01*
X140088183Y-97910202D01*
X140095377Y-97979700D01*
X140063854Y-98042055D01*
X140044558Y-98058775D01*
X139858997Y-98188705D01*
X139691905Y-98355797D01*
X139556365Y-98549369D01*
X139556364Y-98549371D01*
X139456498Y-98763535D01*
X139456494Y-98763544D01*
X139395338Y-98991786D01*
X139395336Y-98991796D01*
X139374741Y-99227199D01*
X139374741Y-99227200D01*
X138600000Y-99227200D01*
X138600000Y-84324000D01*
X138619685Y-84256961D01*
X138672489Y-84211206D01*
X138724000Y-84200000D01*
X157376000Y-84200000D01*
X157443039Y-84219685D01*
G37*
%TD.AperFunction*%
%TD*%
M02*
