%TF.GenerationSoftware,KiCad,Pcbnew,7.0.10*%
%TF.CreationDate,2024-07-25T10:46:56+01:00*%
%TF.ProjectId,RL78I1C_PMOD_PROG_ADAPTOR_NON_ISO,524c3738-4931-4435-9f50-4d4f445f5052,0*%
%TF.SameCoordinates,Original*%
%TF.FileFunction,Copper,L1,Top*%
%TF.FilePolarity,Positive*%
%FSLAX46Y46*%
G04 Gerber Fmt 4.6, Leading zero omitted, Abs format (unit mm)*
G04 Created by KiCad (PCBNEW 7.0.10) date 2024-07-25 10:46:56*
%MOMM*%
%LPD*%
G01*
G04 APERTURE LIST*
G04 Aperture macros list*
%AMRoundRect*
0 Rectangle with rounded corners*
0 $1 Rounding radius*
0 $2 $3 $4 $5 $6 $7 $8 $9 X,Y pos of 4 corners*
0 Add a 4 corners polygon primitive as box body*
4,1,4,$2,$3,$4,$5,$6,$7,$8,$9,$2,$3,0*
0 Add four circle primitives for the rounded corners*
1,1,$1+$1,$2,$3*
1,1,$1+$1,$4,$5*
1,1,$1+$1,$6,$7*
1,1,$1+$1,$8,$9*
0 Add four rect primitives between the rounded corners*
20,1,$1+$1,$2,$3,$4,$5,0*
20,1,$1+$1,$4,$5,$6,$7,0*
20,1,$1+$1,$6,$7,$8,$9,0*
20,1,$1+$1,$8,$9,$2,$3,0*%
G04 Aperture macros list end*
%ADD10C,0.150000*%
%TA.AperFunction,NonConductor*%
%ADD11C,0.150000*%
%TD*%
%TA.AperFunction,SMDPad,CuDef*%
%ADD12RoundRect,0.237500X0.237500X-0.250000X0.237500X0.250000X-0.237500X0.250000X-0.237500X-0.250000X0*%
%TD*%
%TA.AperFunction,SMDPad,CuDef*%
%ADD13RoundRect,0.237500X-0.237500X0.250000X-0.237500X-0.250000X0.237500X-0.250000X0.237500X0.250000X0*%
%TD*%
%TA.AperFunction,ComponentPad*%
%ADD14R,1.700000X1.700000*%
%TD*%
%TA.AperFunction,ComponentPad*%
%ADD15O,1.700000X1.700000*%
%TD*%
%TA.AperFunction,Conductor*%
%ADD16C,0.254000*%
%TD*%
%TA.AperFunction,Conductor*%
%ADD17C,0.750000*%
%TD*%
G04 APERTURE END LIST*
D10*
D11*
X179008207Y-89774580D02*
X178960588Y-89822200D01*
X178960588Y-89822200D02*
X178817731Y-89869819D01*
X178817731Y-89869819D02*
X178722493Y-89869819D01*
X178722493Y-89869819D02*
X178579636Y-89822200D01*
X178579636Y-89822200D02*
X178484398Y-89726961D01*
X178484398Y-89726961D02*
X178436779Y-89631723D01*
X178436779Y-89631723D02*
X178389160Y-89441247D01*
X178389160Y-89441247D02*
X178389160Y-89298390D01*
X178389160Y-89298390D02*
X178436779Y-89107914D01*
X178436779Y-89107914D02*
X178484398Y-89012676D01*
X178484398Y-89012676D02*
X178579636Y-88917438D01*
X178579636Y-88917438D02*
X178722493Y-88869819D01*
X178722493Y-88869819D02*
X178817731Y-88869819D01*
X178817731Y-88869819D02*
X178960588Y-88917438D01*
X178960588Y-88917438D02*
X179008207Y-88965057D01*
X179579636Y-89869819D02*
X179484398Y-89822200D01*
X179484398Y-89822200D02*
X179436779Y-89774580D01*
X179436779Y-89774580D02*
X179389160Y-89679342D01*
X179389160Y-89679342D02*
X179389160Y-89393628D01*
X179389160Y-89393628D02*
X179436779Y-89298390D01*
X179436779Y-89298390D02*
X179484398Y-89250771D01*
X179484398Y-89250771D02*
X179579636Y-89203152D01*
X179579636Y-89203152D02*
X179722493Y-89203152D01*
X179722493Y-89203152D02*
X179817731Y-89250771D01*
X179817731Y-89250771D02*
X179865350Y-89298390D01*
X179865350Y-89298390D02*
X179912969Y-89393628D01*
X179912969Y-89393628D02*
X179912969Y-89679342D01*
X179912969Y-89679342D02*
X179865350Y-89774580D01*
X179865350Y-89774580D02*
X179817731Y-89822200D01*
X179817731Y-89822200D02*
X179722493Y-89869819D01*
X179722493Y-89869819D02*
X179579636Y-89869819D01*
X180341541Y-89203152D02*
X180341541Y-90203152D01*
X180341541Y-89250771D02*
X180436779Y-89203152D01*
X180436779Y-89203152D02*
X180627255Y-89203152D01*
X180627255Y-89203152D02*
X180722493Y-89250771D01*
X180722493Y-89250771D02*
X180770112Y-89298390D01*
X180770112Y-89298390D02*
X180817731Y-89393628D01*
X180817731Y-89393628D02*
X180817731Y-89679342D01*
X180817731Y-89679342D02*
X180770112Y-89774580D01*
X180770112Y-89774580D02*
X180722493Y-89822200D01*
X180722493Y-89822200D02*
X180627255Y-89869819D01*
X180627255Y-89869819D02*
X180436779Y-89869819D01*
X180436779Y-89869819D02*
X180341541Y-89822200D01*
X181246303Y-89203152D02*
X181246303Y-90203152D01*
X181246303Y-89250771D02*
X181341541Y-89203152D01*
X181341541Y-89203152D02*
X181532017Y-89203152D01*
X181532017Y-89203152D02*
X181627255Y-89250771D01*
X181627255Y-89250771D02*
X181674874Y-89298390D01*
X181674874Y-89298390D02*
X181722493Y-89393628D01*
X181722493Y-89393628D02*
X181722493Y-89679342D01*
X181722493Y-89679342D02*
X181674874Y-89774580D01*
X181674874Y-89774580D02*
X181627255Y-89822200D01*
X181627255Y-89822200D02*
X181532017Y-89869819D01*
X181532017Y-89869819D02*
X181341541Y-89869819D01*
X181341541Y-89869819D02*
X181246303Y-89822200D01*
X182532017Y-89822200D02*
X182436779Y-89869819D01*
X182436779Y-89869819D02*
X182246303Y-89869819D01*
X182246303Y-89869819D02*
X182151065Y-89822200D01*
X182151065Y-89822200D02*
X182103446Y-89726961D01*
X182103446Y-89726961D02*
X182103446Y-89346009D01*
X182103446Y-89346009D02*
X182151065Y-89250771D01*
X182151065Y-89250771D02*
X182246303Y-89203152D01*
X182246303Y-89203152D02*
X182436779Y-89203152D01*
X182436779Y-89203152D02*
X182532017Y-89250771D01*
X182532017Y-89250771D02*
X182579636Y-89346009D01*
X182579636Y-89346009D02*
X182579636Y-89441247D01*
X182579636Y-89441247D02*
X182103446Y-89536485D01*
X183008208Y-89869819D02*
X183008208Y-89203152D01*
X183008208Y-89393628D02*
X183055827Y-89298390D01*
X183055827Y-89298390D02*
X183103446Y-89250771D01*
X183103446Y-89250771D02*
X183198684Y-89203152D01*
X183198684Y-89203152D02*
X183293922Y-89203152D01*
D12*
%TO.P,R2,1*%
%TO.N,Net-(J1-Pin_4)*%
X150300000Y-97212500D03*
%TO.P,R2,2*%
%TO.N,/~{RESET_IN}*%
X150300000Y-95387500D03*
%TD*%
D13*
%TO.P,R1,1*%
%TO.N,VCC*%
X150300000Y-91587500D03*
%TO.P,R1,2*%
%TO.N,/TOOL0*%
X150300000Y-93412500D03*
%TD*%
D14*
%TO.P,J1,1,Pin_1*%
%TO.N,unconnected-(J1-Pin_1-Pad1)*%
X143270400Y-101767200D03*
D15*
%TO.P,J1,2,Pin_2*%
%TO.N,GND*%
X140730400Y-101767200D03*
%TO.P,J1,3,Pin_3*%
%TO.N,unconnected-(J1-Pin_3-Pad3)*%
X143270400Y-99227200D03*
%TO.P,J1,4,Pin_4*%
%TO.N,Net-(J1-Pin_4)*%
X140730400Y-99227200D03*
%TO.P,J1,5,Pin_5*%
%TO.N,/TOOL0*%
X143270400Y-96687200D03*
%TO.P,J1,6,Pin_6*%
%TO.N,/~{RESET_IN}*%
X140730400Y-96687200D03*
%TO.P,J1,7,Pin_7*%
%TO.N,unconnected-(J1-Pin_7-Pad7)*%
X143270400Y-94147200D03*
%TO.P,J1,8,Pin_8*%
%TO.N,VCC*%
X140730400Y-94147200D03*
%TO.P,J1,9,Pin_9*%
X143270400Y-91607200D03*
%TO.P,J1,10,Pin_10*%
%TO.N,/~{RESET_OUT}*%
X140730400Y-91607200D03*
%TO.P,J1,11,Pin_11*%
%TO.N,unconnected-(J1-Pin_11-Pad11)*%
X143270400Y-89067200D03*
%TO.P,J1,12,Pin_12*%
%TO.N,GND*%
X140730400Y-89067200D03*
%TO.P,J1,13,Pin_13*%
%TO.N,/~{RESET_OUT}*%
X143270400Y-86527200D03*
%TO.P,J1,14,Pin_14*%
%TO.N,GND*%
X140730400Y-86527200D03*
%TD*%
D14*
%TO.P,J2,1,Pin_1*%
%TO.N,VCC*%
X155700000Y-89325000D03*
D15*
%TO.P,J2,2,Pin_2*%
%TO.N,/~{RESET_OUT}*%
X155700000Y-91865000D03*
%TO.P,J2,3,Pin_3*%
%TO.N,/~{RESET_IN}*%
X155700000Y-94405000D03*
%TO.P,J2,4,Pin_4*%
%TO.N,/TOOL0*%
X155700000Y-96945000D03*
%TO.P,J2,5,Pin_5*%
%TO.N,GND*%
X155700000Y-99485000D03*
%TD*%
D16*
%TO.N,Net-(J1-Pin_4)*%
X141961400Y-100458200D02*
X140730400Y-99227200D01*
X148443750Y-97212500D02*
X145198050Y-100458200D01*
X145198050Y-100458200D02*
X141961400Y-100458200D01*
X150300000Y-97212500D02*
X148443750Y-97212500D01*
D17*
%TO.N,VCC*%
X140730400Y-94147200D02*
X143270400Y-91607200D01*
X153437500Y-91587500D02*
X155700000Y-89325000D01*
X143270400Y-91607200D02*
X150280300Y-91607200D01*
X150280300Y-91607200D02*
X150300000Y-91587500D01*
X150300000Y-91587500D02*
X153437500Y-91587500D01*
D16*
%TO.N,/~{RESET_OUT}*%
X156931000Y-88231000D02*
X155227200Y-86527200D01*
X142039400Y-87758200D02*
X143270400Y-86527200D01*
X155700000Y-91865000D02*
X156931000Y-90634000D01*
X155227200Y-86527200D02*
X143270400Y-86527200D01*
X156931000Y-90634000D02*
X156931000Y-88231000D01*
X140730400Y-91607200D02*
X142039400Y-90298200D01*
X142039400Y-90298200D02*
X142039400Y-87758200D01*
%TO.N,/~{RESET_IN}*%
X150300000Y-95387500D02*
X153088500Y-98176000D01*
X156209897Y-98176000D02*
X156931000Y-97454897D01*
X140730400Y-96687200D02*
X141961400Y-97918200D01*
X141961400Y-97918200D02*
X145681800Y-97918200D01*
X145681800Y-97918200D02*
X148212500Y-95387500D01*
X148212500Y-95387500D02*
X150300000Y-95387500D01*
X153088500Y-98176000D02*
X156209897Y-98176000D01*
X156931000Y-95636000D02*
X155700000Y-94405000D01*
X156931000Y-97454897D02*
X156931000Y-95636000D01*
%TO.N,/TOOL0*%
X153832500Y-96945000D02*
X150300000Y-93412500D01*
X155700000Y-96945000D02*
X153832500Y-96945000D01*
X148087500Y-93412500D02*
X144812800Y-96687200D01*
X150300000Y-93412500D02*
X148087500Y-93412500D01*
X144812800Y-96687200D02*
X143270400Y-96687200D01*
%TD*%
M02*
