%TF.GenerationSoftware,KiCad,Pcbnew,7.0.10*%
%TF.CreationDate,2024-10-22T16:17:12+01:00*%
%TF.ProjectId,RL78I1C_PMOD_PROG_ADAPTOR_NON_ISO,524c3738-4931-4435-9f50-4d4f445f5052,0*%
%TF.SameCoordinates,Original*%
%TF.FileFunction,Drillmap*%
%TF.FilePolarity,Positive*%
%FSLAX45Y45*%
G04 Gerber Fmt 4.5, Leading zero omitted, Abs format (unit mm)*
G04 Created by KiCad (PCBNEW 7.0.10) date 2024-10-22 16:17:12*
%MOMM*%
%LPD*%
G01*
G04 APERTURE LIST*
%ADD10C,0.100000*%
%ADD11C,0.200000*%
G04 APERTURE END LIST*
D10*
X13672760Y-8096680D02*
X15822760Y-8096680D01*
X15822760Y-10846680D01*
X13672760Y-10846680D01*
X13672760Y-8096680D01*
D11*
D10*
X14023040Y-8602720D02*
X14123040Y-8702720D01*
X14123040Y-8602720D02*
X14023040Y-8702720D01*
X14023040Y-8856720D02*
X14123040Y-8956720D01*
X14123040Y-8856720D02*
X14023040Y-8956720D01*
X14023040Y-9110720D02*
X14123040Y-9210720D01*
X14123040Y-9110720D02*
X14023040Y-9210720D01*
X14023040Y-9364720D02*
X14123040Y-9464720D01*
X14123040Y-9364720D02*
X14023040Y-9464720D01*
X14023040Y-9618720D02*
X14123040Y-9718720D01*
X14123040Y-9618720D02*
X14023040Y-9718720D01*
X14023040Y-9872720D02*
X14123040Y-9972720D01*
X14123040Y-9872720D02*
X14023040Y-9972720D01*
X14023040Y-10126720D02*
X14123040Y-10226720D01*
X14123040Y-10126720D02*
X14023040Y-10226720D01*
X14277040Y-8602720D02*
X14377040Y-8702720D01*
X14377040Y-8602720D02*
X14277040Y-8702720D01*
X14277040Y-8856720D02*
X14377040Y-8956720D01*
X14377040Y-8856720D02*
X14277040Y-8956720D01*
X14277040Y-9110720D02*
X14377040Y-9210720D01*
X14377040Y-9110720D02*
X14277040Y-9210720D01*
X14277040Y-9364720D02*
X14377040Y-9464720D01*
X14377040Y-9364720D02*
X14277040Y-9464720D01*
X14277040Y-9618720D02*
X14377040Y-9718720D01*
X14377040Y-9618720D02*
X14277040Y-9718720D01*
X14277040Y-9872720D02*
X14377040Y-9972720D01*
X14377040Y-9872720D02*
X14277040Y-9972720D01*
X14277040Y-10126720D02*
X14377040Y-10226720D01*
X14377040Y-10126720D02*
X14277040Y-10226720D01*
X15520000Y-8882500D02*
X15620000Y-8982500D01*
X15620000Y-8882500D02*
X15520000Y-8982500D01*
X15520000Y-9136500D02*
X15620000Y-9236500D01*
X15620000Y-9136500D02*
X15520000Y-9236500D01*
X15520000Y-9390500D02*
X15620000Y-9490500D01*
X15620000Y-9390500D02*
X15520000Y-9490500D01*
X15520000Y-9644500D02*
X15620000Y-9744500D01*
X15620000Y-9644500D02*
X15520000Y-9744500D01*
X15520000Y-9898500D02*
X15620000Y-9998500D01*
X15620000Y-9898500D02*
X15520000Y-9998500D01*
D11*
X13928537Y-11163164D02*
X13928537Y-10963164D01*
X13928537Y-10963164D02*
X13976156Y-10963164D01*
X13976156Y-10963164D02*
X14004727Y-10972688D01*
X14004727Y-10972688D02*
X14023775Y-10991735D01*
X14023775Y-10991735D02*
X14033299Y-11010783D01*
X14033299Y-11010783D02*
X14042822Y-11048878D01*
X14042822Y-11048878D02*
X14042822Y-11077450D01*
X14042822Y-11077450D02*
X14033299Y-11115545D01*
X14033299Y-11115545D02*
X14023775Y-11134592D01*
X14023775Y-11134592D02*
X14004727Y-11153640D01*
X14004727Y-11153640D02*
X13976156Y-11163164D01*
X13976156Y-11163164D02*
X13928537Y-11163164D01*
X14128537Y-11163164D02*
X14128537Y-11029830D01*
X14128537Y-11067926D02*
X14138061Y-11048878D01*
X14138061Y-11048878D02*
X14147584Y-11039354D01*
X14147584Y-11039354D02*
X14166632Y-11029830D01*
X14166632Y-11029830D02*
X14185680Y-11029830D01*
X14252346Y-11163164D02*
X14252346Y-11029830D01*
X14252346Y-10963164D02*
X14242822Y-10972688D01*
X14242822Y-10972688D02*
X14252346Y-10982211D01*
X14252346Y-10982211D02*
X14261870Y-10972688D01*
X14261870Y-10972688D02*
X14252346Y-10963164D01*
X14252346Y-10963164D02*
X14252346Y-10982211D01*
X14376156Y-11163164D02*
X14357108Y-11153640D01*
X14357108Y-11153640D02*
X14347584Y-11134592D01*
X14347584Y-11134592D02*
X14347584Y-10963164D01*
X14480918Y-11163164D02*
X14461870Y-11153640D01*
X14461870Y-11153640D02*
X14452346Y-11134592D01*
X14452346Y-11134592D02*
X14452346Y-10963164D01*
X14709489Y-11163164D02*
X14709489Y-10963164D01*
X14709489Y-10963164D02*
X14776156Y-11106021D01*
X14776156Y-11106021D02*
X14842822Y-10963164D01*
X14842822Y-10963164D02*
X14842822Y-11163164D01*
X15023775Y-11163164D02*
X15023775Y-11058402D01*
X15023775Y-11058402D02*
X15014251Y-11039354D01*
X15014251Y-11039354D02*
X14995203Y-11029830D01*
X14995203Y-11029830D02*
X14957108Y-11029830D01*
X14957108Y-11029830D02*
X14938061Y-11039354D01*
X15023775Y-11153640D02*
X15004727Y-11163164D01*
X15004727Y-11163164D02*
X14957108Y-11163164D01*
X14957108Y-11163164D02*
X14938061Y-11153640D01*
X14938061Y-11153640D02*
X14928537Y-11134592D01*
X14928537Y-11134592D02*
X14928537Y-11115545D01*
X14928537Y-11115545D02*
X14938061Y-11096497D01*
X14938061Y-11096497D02*
X14957108Y-11086973D01*
X14957108Y-11086973D02*
X15004727Y-11086973D01*
X15004727Y-11086973D02*
X15023775Y-11077450D01*
X15119013Y-11029830D02*
X15119013Y-11229830D01*
X15119013Y-11039354D02*
X15138061Y-11029830D01*
X15138061Y-11029830D02*
X15176156Y-11029830D01*
X15176156Y-11029830D02*
X15195203Y-11039354D01*
X15195203Y-11039354D02*
X15204727Y-11048878D01*
X15204727Y-11048878D02*
X15214251Y-11067926D01*
X15214251Y-11067926D02*
X15214251Y-11125069D01*
X15214251Y-11125069D02*
X15204727Y-11144116D01*
X15204727Y-11144116D02*
X15195203Y-11153640D01*
X15195203Y-11153640D02*
X15176156Y-11163164D01*
X15176156Y-11163164D02*
X15138061Y-11163164D01*
X15138061Y-11163164D02*
X15119013Y-11153640D01*
X15299965Y-11144116D02*
X15309489Y-11153640D01*
X15309489Y-11153640D02*
X15299965Y-11163164D01*
X15299965Y-11163164D02*
X15290442Y-11153640D01*
X15290442Y-11153640D02*
X15299965Y-11144116D01*
X15299965Y-11144116D02*
X15299965Y-11163164D01*
X15299965Y-11039354D02*
X15309489Y-11048878D01*
X15309489Y-11048878D02*
X15299965Y-11058402D01*
X15299965Y-11058402D02*
X15290442Y-11048878D01*
X15290442Y-11048878D02*
X15299965Y-11039354D01*
X15299965Y-11039354D02*
X15299965Y-11058402D01*
D10*
X13567760Y-11441680D02*
X13667760Y-11541680D01*
X13667760Y-11441680D02*
X13567760Y-11541680D01*
D11*
X14033299Y-11583164D02*
X13919013Y-11583164D01*
X13976156Y-11583164D02*
X13976156Y-11383164D01*
X13976156Y-11383164D02*
X13957108Y-11411735D01*
X13957108Y-11411735D02*
X13938061Y-11430783D01*
X13938061Y-11430783D02*
X13919013Y-11440307D01*
X14119013Y-11564116D02*
X14128537Y-11573640D01*
X14128537Y-11573640D02*
X14119013Y-11583164D01*
X14119013Y-11583164D02*
X14109489Y-11573640D01*
X14109489Y-11573640D02*
X14119013Y-11564116D01*
X14119013Y-11564116D02*
X14119013Y-11583164D01*
X14252346Y-11383164D02*
X14271394Y-11383164D01*
X14271394Y-11383164D02*
X14290442Y-11392688D01*
X14290442Y-11392688D02*
X14299965Y-11402211D01*
X14299965Y-11402211D02*
X14309489Y-11421259D01*
X14309489Y-11421259D02*
X14319013Y-11459354D01*
X14319013Y-11459354D02*
X14319013Y-11506973D01*
X14319013Y-11506973D02*
X14309489Y-11545068D01*
X14309489Y-11545068D02*
X14299965Y-11564116D01*
X14299965Y-11564116D02*
X14290442Y-11573640D01*
X14290442Y-11573640D02*
X14271394Y-11583164D01*
X14271394Y-11583164D02*
X14252346Y-11583164D01*
X14252346Y-11583164D02*
X14233299Y-11573640D01*
X14233299Y-11573640D02*
X14223775Y-11564116D01*
X14223775Y-11564116D02*
X14214251Y-11545068D01*
X14214251Y-11545068D02*
X14204727Y-11506973D01*
X14204727Y-11506973D02*
X14204727Y-11459354D01*
X14204727Y-11459354D02*
X14214251Y-11421259D01*
X14214251Y-11421259D02*
X14223775Y-11402211D01*
X14223775Y-11402211D02*
X14233299Y-11392688D01*
X14233299Y-11392688D02*
X14252346Y-11383164D01*
X14442822Y-11383164D02*
X14461870Y-11383164D01*
X14461870Y-11383164D02*
X14480918Y-11392688D01*
X14480918Y-11392688D02*
X14490442Y-11402211D01*
X14490442Y-11402211D02*
X14499965Y-11421259D01*
X14499965Y-11421259D02*
X14509489Y-11459354D01*
X14509489Y-11459354D02*
X14509489Y-11506973D01*
X14509489Y-11506973D02*
X14499965Y-11545068D01*
X14499965Y-11545068D02*
X14490442Y-11564116D01*
X14490442Y-11564116D02*
X14480918Y-11573640D01*
X14480918Y-11573640D02*
X14461870Y-11583164D01*
X14461870Y-11583164D02*
X14442822Y-11583164D01*
X14442822Y-11583164D02*
X14423775Y-11573640D01*
X14423775Y-11573640D02*
X14414251Y-11564116D01*
X14414251Y-11564116D02*
X14404727Y-11545068D01*
X14404727Y-11545068D02*
X14395203Y-11506973D01*
X14395203Y-11506973D02*
X14395203Y-11459354D01*
X14395203Y-11459354D02*
X14404727Y-11421259D01*
X14404727Y-11421259D02*
X14414251Y-11402211D01*
X14414251Y-11402211D02*
X14423775Y-11392688D01*
X14423775Y-11392688D02*
X14442822Y-11383164D01*
X14633299Y-11383164D02*
X14652346Y-11383164D01*
X14652346Y-11383164D02*
X14671394Y-11392688D01*
X14671394Y-11392688D02*
X14680918Y-11402211D01*
X14680918Y-11402211D02*
X14690442Y-11421259D01*
X14690442Y-11421259D02*
X14699965Y-11459354D01*
X14699965Y-11459354D02*
X14699965Y-11506973D01*
X14699965Y-11506973D02*
X14690442Y-11545068D01*
X14690442Y-11545068D02*
X14680918Y-11564116D01*
X14680918Y-11564116D02*
X14671394Y-11573640D01*
X14671394Y-11573640D02*
X14652346Y-11583164D01*
X14652346Y-11583164D02*
X14633299Y-11583164D01*
X14633299Y-11583164D02*
X14614251Y-11573640D01*
X14614251Y-11573640D02*
X14604727Y-11564116D01*
X14604727Y-11564116D02*
X14595203Y-11545068D01*
X14595203Y-11545068D02*
X14585680Y-11506973D01*
X14585680Y-11506973D02*
X14585680Y-11459354D01*
X14585680Y-11459354D02*
X14595203Y-11421259D01*
X14595203Y-11421259D02*
X14604727Y-11402211D01*
X14604727Y-11402211D02*
X14614251Y-11392688D01*
X14614251Y-11392688D02*
X14633299Y-11383164D01*
X14785680Y-11583164D02*
X14785680Y-11449830D01*
X14785680Y-11468878D02*
X14795203Y-11459354D01*
X14795203Y-11459354D02*
X14814251Y-11449830D01*
X14814251Y-11449830D02*
X14842823Y-11449830D01*
X14842823Y-11449830D02*
X14861870Y-11459354D01*
X14861870Y-11459354D02*
X14871394Y-11478402D01*
X14871394Y-11478402D02*
X14871394Y-11583164D01*
X14871394Y-11478402D02*
X14880918Y-11459354D01*
X14880918Y-11459354D02*
X14899965Y-11449830D01*
X14899965Y-11449830D02*
X14928537Y-11449830D01*
X14928537Y-11449830D02*
X14947584Y-11459354D01*
X14947584Y-11459354D02*
X14957108Y-11478402D01*
X14957108Y-11478402D02*
X14957108Y-11583164D01*
X15052346Y-11583164D02*
X15052346Y-11449830D01*
X15052346Y-11468878D02*
X15061870Y-11459354D01*
X15061870Y-11459354D02*
X15080918Y-11449830D01*
X15080918Y-11449830D02*
X15109489Y-11449830D01*
X15109489Y-11449830D02*
X15128537Y-11459354D01*
X15128537Y-11459354D02*
X15138061Y-11478402D01*
X15138061Y-11478402D02*
X15138061Y-11583164D01*
X15138061Y-11478402D02*
X15147584Y-11459354D01*
X15147584Y-11459354D02*
X15166632Y-11449830D01*
X15166632Y-11449830D02*
X15195203Y-11449830D01*
X15195203Y-11449830D02*
X15214251Y-11459354D01*
X15214251Y-11459354D02*
X15223775Y-11478402D01*
X15223775Y-11478402D02*
X15223775Y-11583164D01*
X15614251Y-11373640D02*
X15442823Y-11630783D01*
X15871394Y-11383164D02*
X15890442Y-11383164D01*
X15890442Y-11383164D02*
X15909489Y-11392688D01*
X15909489Y-11392688D02*
X15919013Y-11402211D01*
X15919013Y-11402211D02*
X15928537Y-11421259D01*
X15928537Y-11421259D02*
X15938061Y-11459354D01*
X15938061Y-11459354D02*
X15938061Y-11506973D01*
X15938061Y-11506973D02*
X15928537Y-11545068D01*
X15928537Y-11545068D02*
X15919013Y-11564116D01*
X15919013Y-11564116D02*
X15909489Y-11573640D01*
X15909489Y-11573640D02*
X15890442Y-11583164D01*
X15890442Y-11583164D02*
X15871394Y-11583164D01*
X15871394Y-11583164D02*
X15852346Y-11573640D01*
X15852346Y-11573640D02*
X15842823Y-11564116D01*
X15842823Y-11564116D02*
X15833299Y-11545068D01*
X15833299Y-11545068D02*
X15823775Y-11506973D01*
X15823775Y-11506973D02*
X15823775Y-11459354D01*
X15823775Y-11459354D02*
X15833299Y-11421259D01*
X15833299Y-11421259D02*
X15842823Y-11402211D01*
X15842823Y-11402211D02*
X15852346Y-11392688D01*
X15852346Y-11392688D02*
X15871394Y-11383164D01*
X16023775Y-11564116D02*
X16033299Y-11573640D01*
X16033299Y-11573640D02*
X16023775Y-11583164D01*
X16023775Y-11583164D02*
X16014251Y-11573640D01*
X16014251Y-11573640D02*
X16023775Y-11564116D01*
X16023775Y-11564116D02*
X16023775Y-11583164D01*
X16157108Y-11383164D02*
X16176156Y-11383164D01*
X16176156Y-11383164D02*
X16195204Y-11392688D01*
X16195204Y-11392688D02*
X16204727Y-11402211D01*
X16204727Y-11402211D02*
X16214251Y-11421259D01*
X16214251Y-11421259D02*
X16223775Y-11459354D01*
X16223775Y-11459354D02*
X16223775Y-11506973D01*
X16223775Y-11506973D02*
X16214251Y-11545068D01*
X16214251Y-11545068D02*
X16204727Y-11564116D01*
X16204727Y-11564116D02*
X16195204Y-11573640D01*
X16195204Y-11573640D02*
X16176156Y-11583164D01*
X16176156Y-11583164D02*
X16157108Y-11583164D01*
X16157108Y-11583164D02*
X16138061Y-11573640D01*
X16138061Y-11573640D02*
X16128537Y-11564116D01*
X16128537Y-11564116D02*
X16119013Y-11545068D01*
X16119013Y-11545068D02*
X16109489Y-11506973D01*
X16109489Y-11506973D02*
X16109489Y-11459354D01*
X16109489Y-11459354D02*
X16119013Y-11421259D01*
X16119013Y-11421259D02*
X16128537Y-11402211D01*
X16128537Y-11402211D02*
X16138061Y-11392688D01*
X16138061Y-11392688D02*
X16157108Y-11383164D01*
X16290442Y-11383164D02*
X16414251Y-11383164D01*
X16414251Y-11383164D02*
X16347585Y-11459354D01*
X16347585Y-11459354D02*
X16376156Y-11459354D01*
X16376156Y-11459354D02*
X16395204Y-11468878D01*
X16395204Y-11468878D02*
X16404727Y-11478402D01*
X16404727Y-11478402D02*
X16414251Y-11497449D01*
X16414251Y-11497449D02*
X16414251Y-11545068D01*
X16414251Y-11545068D02*
X16404727Y-11564116D01*
X16404727Y-11564116D02*
X16395204Y-11573640D01*
X16395204Y-11573640D02*
X16376156Y-11583164D01*
X16376156Y-11583164D02*
X16319013Y-11583164D01*
X16319013Y-11583164D02*
X16299966Y-11573640D01*
X16299966Y-11573640D02*
X16290442Y-11564116D01*
X16509489Y-11583164D02*
X16547585Y-11583164D01*
X16547585Y-11583164D02*
X16566632Y-11573640D01*
X16566632Y-11573640D02*
X16576156Y-11564116D01*
X16576156Y-11564116D02*
X16595204Y-11535545D01*
X16595204Y-11535545D02*
X16604727Y-11497449D01*
X16604727Y-11497449D02*
X16604727Y-11421259D01*
X16604727Y-11421259D02*
X16595204Y-11402211D01*
X16595204Y-11402211D02*
X16585680Y-11392688D01*
X16585680Y-11392688D02*
X16566632Y-11383164D01*
X16566632Y-11383164D02*
X16528537Y-11383164D01*
X16528537Y-11383164D02*
X16509489Y-11392688D01*
X16509489Y-11392688D02*
X16499966Y-11402211D01*
X16499966Y-11402211D02*
X16490442Y-11421259D01*
X16490442Y-11421259D02*
X16490442Y-11468878D01*
X16490442Y-11468878D02*
X16499966Y-11487926D01*
X16499966Y-11487926D02*
X16509489Y-11497449D01*
X16509489Y-11497449D02*
X16528537Y-11506973D01*
X16528537Y-11506973D02*
X16566632Y-11506973D01*
X16566632Y-11506973D02*
X16585680Y-11497449D01*
X16585680Y-11497449D02*
X16595204Y-11487926D01*
X16595204Y-11487926D02*
X16604727Y-11468878D01*
X16776156Y-11449830D02*
X16776156Y-11583164D01*
X16728537Y-11373640D02*
X16680918Y-11516497D01*
X16680918Y-11516497D02*
X16804728Y-11516497D01*
X16871394Y-11383164D02*
X16871394Y-11421259D01*
X16947585Y-11383164D02*
X16947585Y-11421259D01*
X17242823Y-11659354D02*
X17233299Y-11649830D01*
X17233299Y-11649830D02*
X17214251Y-11621259D01*
X17214251Y-11621259D02*
X17204728Y-11602211D01*
X17204728Y-11602211D02*
X17195204Y-11573640D01*
X17195204Y-11573640D02*
X17185680Y-11526021D01*
X17185680Y-11526021D02*
X17185680Y-11487926D01*
X17185680Y-11487926D02*
X17195204Y-11440307D01*
X17195204Y-11440307D02*
X17204728Y-11411735D01*
X17204728Y-11411735D02*
X17214251Y-11392688D01*
X17214251Y-11392688D02*
X17233299Y-11364116D01*
X17233299Y-11364116D02*
X17242823Y-11354592D01*
X17423775Y-11583164D02*
X17309490Y-11583164D01*
X17366632Y-11583164D02*
X17366632Y-11383164D01*
X17366632Y-11383164D02*
X17347585Y-11411735D01*
X17347585Y-11411735D02*
X17328537Y-11430783D01*
X17328537Y-11430783D02*
X17309490Y-11440307D01*
X17519013Y-11583164D02*
X17557109Y-11583164D01*
X17557109Y-11583164D02*
X17576156Y-11573640D01*
X17576156Y-11573640D02*
X17585680Y-11564116D01*
X17585680Y-11564116D02*
X17604728Y-11535545D01*
X17604728Y-11535545D02*
X17614251Y-11497449D01*
X17614251Y-11497449D02*
X17614251Y-11421259D01*
X17614251Y-11421259D02*
X17604728Y-11402211D01*
X17604728Y-11402211D02*
X17595204Y-11392688D01*
X17595204Y-11392688D02*
X17576156Y-11383164D01*
X17576156Y-11383164D02*
X17538061Y-11383164D01*
X17538061Y-11383164D02*
X17519013Y-11392688D01*
X17519013Y-11392688D02*
X17509490Y-11402211D01*
X17509490Y-11402211D02*
X17499966Y-11421259D01*
X17499966Y-11421259D02*
X17499966Y-11468878D01*
X17499966Y-11468878D02*
X17509490Y-11487926D01*
X17509490Y-11487926D02*
X17519013Y-11497449D01*
X17519013Y-11497449D02*
X17538061Y-11506973D01*
X17538061Y-11506973D02*
X17576156Y-11506973D01*
X17576156Y-11506973D02*
X17595204Y-11497449D01*
X17595204Y-11497449D02*
X17604728Y-11487926D01*
X17604728Y-11487926D02*
X17614251Y-11468878D01*
X17852347Y-11583164D02*
X17852347Y-11383164D01*
X17938061Y-11583164D02*
X17938061Y-11478402D01*
X17938061Y-11478402D02*
X17928537Y-11459354D01*
X17928537Y-11459354D02*
X17909490Y-11449830D01*
X17909490Y-11449830D02*
X17880918Y-11449830D01*
X17880918Y-11449830D02*
X17861871Y-11459354D01*
X17861871Y-11459354D02*
X17852347Y-11468878D01*
X18061871Y-11583164D02*
X18042823Y-11573640D01*
X18042823Y-11573640D02*
X18033299Y-11564116D01*
X18033299Y-11564116D02*
X18023775Y-11545068D01*
X18023775Y-11545068D02*
X18023775Y-11487926D01*
X18023775Y-11487926D02*
X18033299Y-11468878D01*
X18033299Y-11468878D02*
X18042823Y-11459354D01*
X18042823Y-11459354D02*
X18061871Y-11449830D01*
X18061871Y-11449830D02*
X18090442Y-11449830D01*
X18090442Y-11449830D02*
X18109490Y-11459354D01*
X18109490Y-11459354D02*
X18119013Y-11468878D01*
X18119013Y-11468878D02*
X18128537Y-11487926D01*
X18128537Y-11487926D02*
X18128537Y-11545068D01*
X18128537Y-11545068D02*
X18119013Y-11564116D01*
X18119013Y-11564116D02*
X18109490Y-11573640D01*
X18109490Y-11573640D02*
X18090442Y-11583164D01*
X18090442Y-11583164D02*
X18061871Y-11583164D01*
X18242823Y-11583164D02*
X18223775Y-11573640D01*
X18223775Y-11573640D02*
X18214252Y-11554592D01*
X18214252Y-11554592D02*
X18214252Y-11383164D01*
X18395204Y-11573640D02*
X18376156Y-11583164D01*
X18376156Y-11583164D02*
X18338061Y-11583164D01*
X18338061Y-11583164D02*
X18319013Y-11573640D01*
X18319013Y-11573640D02*
X18309490Y-11554592D01*
X18309490Y-11554592D02*
X18309490Y-11478402D01*
X18309490Y-11478402D02*
X18319013Y-11459354D01*
X18319013Y-11459354D02*
X18338061Y-11449830D01*
X18338061Y-11449830D02*
X18376156Y-11449830D01*
X18376156Y-11449830D02*
X18395204Y-11459354D01*
X18395204Y-11459354D02*
X18404728Y-11478402D01*
X18404728Y-11478402D02*
X18404728Y-11497449D01*
X18404728Y-11497449D02*
X18309490Y-11516497D01*
X18480918Y-11573640D02*
X18499966Y-11583164D01*
X18499966Y-11583164D02*
X18538061Y-11583164D01*
X18538061Y-11583164D02*
X18557109Y-11573640D01*
X18557109Y-11573640D02*
X18566633Y-11554592D01*
X18566633Y-11554592D02*
X18566633Y-11545068D01*
X18566633Y-11545068D02*
X18557109Y-11526021D01*
X18557109Y-11526021D02*
X18538061Y-11516497D01*
X18538061Y-11516497D02*
X18509490Y-11516497D01*
X18509490Y-11516497D02*
X18490442Y-11506973D01*
X18490442Y-11506973D02*
X18480918Y-11487926D01*
X18480918Y-11487926D02*
X18480918Y-11478402D01*
X18480918Y-11478402D02*
X18490442Y-11459354D01*
X18490442Y-11459354D02*
X18509490Y-11449830D01*
X18509490Y-11449830D02*
X18538061Y-11449830D01*
X18538061Y-11449830D02*
X18557109Y-11459354D01*
X18633299Y-11659354D02*
X18642823Y-11649830D01*
X18642823Y-11649830D02*
X18661871Y-11621259D01*
X18661871Y-11621259D02*
X18671394Y-11602211D01*
X18671394Y-11602211D02*
X18680918Y-11573640D01*
X18680918Y-11573640D02*
X18690442Y-11526021D01*
X18690442Y-11526021D02*
X18690442Y-11487926D01*
X18690442Y-11487926D02*
X18680918Y-11440307D01*
X18680918Y-11440307D02*
X18671394Y-11411735D01*
X18671394Y-11411735D02*
X18661871Y-11392688D01*
X18661871Y-11392688D02*
X18642823Y-11364116D01*
X18642823Y-11364116D02*
X18633299Y-11354592D01*
M02*
