%TF.GenerationSoftware,KiCad,Pcbnew,7.0.10*%
%TF.CreationDate,2024-10-22T16:17:16+01:00*%
%TF.ProjectId,RL78I1C_PMOD_PROG_ADAPTOR_NON_ISO,524c3738-4931-4435-9f50-4d4f445f5052,0*%
%TF.SameCoordinates,Original*%
%TF.FileFunction,Soldermask,Top*%
%TF.FilePolarity,Negative*%
%FSLAX46Y46*%
G04 Gerber Fmt 4.6, Leading zero omitted, Abs format (unit mm)*
G04 Created by KiCad (PCBNEW 7.0.10) date 2024-10-22 16:17:16*
%MOMM*%
%LPD*%
G01*
G04 APERTURE LIST*
G04 Aperture macros list*
%AMRoundRect*
0 Rectangle with rounded corners*
0 $1 Rounding radius*
0 $2 $3 $4 $5 $6 $7 $8 $9 X,Y pos of 4 corners*
0 Add a 4 corners polygon primitive as box body*
4,1,4,$2,$3,$4,$5,$6,$7,$8,$9,$2,$3,0*
0 Add four circle primitives for the rounded corners*
1,1,$1+$1,$2,$3*
1,1,$1+$1,$4,$5*
1,1,$1+$1,$6,$7*
1,1,$1+$1,$8,$9*
0 Add four rect primitives between the rounded corners*
20,1,$1+$1,$2,$3,$4,$5,0*
20,1,$1+$1,$4,$5,$6,$7,0*
20,1,$1+$1,$6,$7,$8,$9,0*
20,1,$1+$1,$8,$9,$2,$3,0*%
G04 Aperture macros list end*
%ADD10C,0.150000*%
%ADD11RoundRect,0.237500X0.237500X-0.250000X0.237500X0.250000X-0.237500X0.250000X-0.237500X-0.250000X0*%
%ADD12RoundRect,0.237500X-0.237500X0.250000X-0.237500X-0.250000X0.237500X-0.250000X0.237500X0.250000X0*%
%ADD13R,1.700000X1.700000*%
%ADD14O,1.700000X1.700000*%
G04 APERTURE END LIST*
D10*
X178436779Y-95169819D02*
X178436779Y-94169819D01*
X178436779Y-94169819D02*
X178770112Y-94884104D01*
X178770112Y-94884104D02*
X179103445Y-94169819D01*
X179103445Y-94169819D02*
X179103445Y-95169819D01*
X180008207Y-95169819D02*
X180008207Y-94646009D01*
X180008207Y-94646009D02*
X179960588Y-94550771D01*
X179960588Y-94550771D02*
X179865350Y-94503152D01*
X179865350Y-94503152D02*
X179674874Y-94503152D01*
X179674874Y-94503152D02*
X179579636Y-94550771D01*
X180008207Y-95122200D02*
X179912969Y-95169819D01*
X179912969Y-95169819D02*
X179674874Y-95169819D01*
X179674874Y-95169819D02*
X179579636Y-95122200D01*
X179579636Y-95122200D02*
X179532017Y-95026961D01*
X179532017Y-95026961D02*
X179532017Y-94931723D01*
X179532017Y-94931723D02*
X179579636Y-94836485D01*
X179579636Y-94836485D02*
X179674874Y-94788866D01*
X179674874Y-94788866D02*
X179912969Y-94788866D01*
X179912969Y-94788866D02*
X180008207Y-94741247D01*
X180436779Y-95122200D02*
X180532017Y-95169819D01*
X180532017Y-95169819D02*
X180722493Y-95169819D01*
X180722493Y-95169819D02*
X180817731Y-95122200D01*
X180817731Y-95122200D02*
X180865350Y-95026961D01*
X180865350Y-95026961D02*
X180865350Y-94979342D01*
X180865350Y-94979342D02*
X180817731Y-94884104D01*
X180817731Y-94884104D02*
X180722493Y-94836485D01*
X180722493Y-94836485D02*
X180579636Y-94836485D01*
X180579636Y-94836485D02*
X180484398Y-94788866D01*
X180484398Y-94788866D02*
X180436779Y-94693628D01*
X180436779Y-94693628D02*
X180436779Y-94646009D01*
X180436779Y-94646009D02*
X180484398Y-94550771D01*
X180484398Y-94550771D02*
X180579636Y-94503152D01*
X180579636Y-94503152D02*
X180722493Y-94503152D01*
X180722493Y-94503152D02*
X180817731Y-94550771D01*
X181293922Y-95169819D02*
X181293922Y-94169819D01*
X181389160Y-94788866D02*
X181674874Y-95169819D01*
X181674874Y-94503152D02*
X181293922Y-94884104D01*
D11*
%TO.C,R2*%
X150300000Y-97212500D03*
X150300000Y-95387500D03*
%TD*%
D12*
%TO.C,R1*%
X150300000Y-91587500D03*
X150300000Y-93412500D03*
%TD*%
D13*
%TO.C,J1*%
X143270400Y-101767200D03*
D14*
X140730400Y-101767200D03*
X143270400Y-99227200D03*
X140730400Y-99227200D03*
X143270400Y-96687200D03*
X140730400Y-96687200D03*
X143270400Y-94147200D03*
X140730400Y-94147200D03*
X143270400Y-91607200D03*
X140730400Y-91607200D03*
X143270400Y-89067200D03*
X140730400Y-89067200D03*
X143270400Y-86527200D03*
X140730400Y-86527200D03*
%TD*%
D13*
%TO.C,J2*%
X155700000Y-89325000D03*
D14*
X155700000Y-91865000D03*
X155700000Y-94405000D03*
X155700000Y-96945000D03*
X155700000Y-99485000D03*
%TD*%
M02*
